<?xml version="1.0" encoding="UTF-8" standalone="no"?>
<svg
   xmlns:dc="http://purl.org/dc/elements/1.1/"
   xmlns:cc="http://creativecommons.org/ns#"
   xmlns:rdf="http://www.w3.org/1999/02/22-rdf-syntax-ns#"
   xmlns:svg="http://www.w3.org/2000/svg"
   xmlns="http://www.w3.org/2000/svg"
   id="svg15"
   xml:space="preserve"
   viewBox="0 0 200 200"
   y="0px"
   x="0px"
   version="1.1"><metadata
     id="metadata21"><rdf:RDF><cc:Work
         rdf:about=""><dc:format>image/svg+xml</dc:format><dc:type
           rdf:resource="http://purl.org/dc/dcmitype/StillImage" /></cc:Work></rdf:RDF></metadata><defs
     id="defs19" /><style
     id="style2">
#logo-fade{
opacity: 0;
animation: fadeIn 4s ease-in forwards;
}

@keyframes fadeIn { 0% { opacity:0; } 50% { opacity:0; } 100% { opacity:1; } }
@keyframes fadeOut { from { opacity:1; } to { opacity:0; } }

#outline{
opacity: 1;
stroke-dasharray: 2000;
stroke-dashoffset: 2000;
animation: dash 4s ease-in-out forwards;
}

@keyframes dash {
  0% {
    opacity: 1;
    stroke-dashoffset: 2000;
  }
  50% {
    opacity: 1;
    stroke-dashoffset: 1000;
  }
  100% {
    opacity: 0;
    stroke-dashoffset: 0;
  }
}
</style><path
     stroke-linecap="round"
     stroke-linejoin="round"
     stroke-width="4"
     stroke="#FFFFFF"
     fill="none"
     d="m99.855 40c-0.99293 0.0045-1.912 0.01588-2.041 0.02342-0.12912 0.0079-0.61525 0.03524-1.0801 0.06249-0.46483 0.0277-1.2579 0.09233-1.7617 0.14258-0.50332 0.05067-1.2318 0.13538-1.6191 0.1875-0.38735 0.05258-0.96802 0.1378-1.291 0.18945-0.32255 0.05168-0.97711 0.16868-1.4551 0.25977-0.4775 0.09109-1.2393 0.25169-1.6914 0.35546-0.45167 0.10381-1.2489 0.3015-1.7715 0.44141-0.52258 0.13945-1.2613 0.35044-1.6426 0.46876-0.38125 0.11785-0.97919 0.31083-1.3281 0.42774-0.34838 0.11691-1.0137 0.3576-1.4785 0.5332-0.46483 0.1756-1.1825 0.46049-1.5957 0.63281-0.41318 0.17232-1.1221 0.48092-1.5742 0.6875-0.45168 0.20659-1.2223 0.5838-1.7129 0.83594-0.49066 0.2526-1.1663 0.61148-1.5019 0.79883-0.33571 0.18686-0.94086 0.53851-1.3438 0.78125-0.40238 0.24322-0.86188 0.56093-1.0215 0.70507-0.15964 0.14462-0.38341 0.39209-0.49609 0.55078-0.11268 0.1587-0.28266 0.4447-0.3789 0.63672-0.09582 0.19203-0.22771 0.55186-0.29297 0.79883-0.09717 0.36764-0.11969 0.56097-0.1211 1.0605-0.0011 0.43149 0.02387 0.70508 0.08208 0.9375 0.04549 0.18076 0.18321 0.54214 0.30859 0.80273 0.17513 0.36387 0.30684 0.55759 0.56837 0.8379 0.18686 0.20001 0.46358 0.44796 0.61523 0.55078 0.15165 0.1028 0.44841 0.26966 0.66016 0.37109 0.21223 0.101 0.55512 0.22975 0.76172 0.28516 0.28922 0.07701 0.52146 0.09976 1.0098 0.10348 0.47891 0.0034 0.71453-0.01576 0.9629-0.08208 0.18076-0.04785 0.43337-0.1346 0.56249-0.19141 0.12911-0.05731 0.51001-0.26928 0.84571-0.4707 0.33571-0.20189 0.88853-0.5207 1.2285-0.70898 0.33994-0.18875 1.0366-0.55226 1.5488-0.8086 0.51225-0.25589 1.2813-0.61734 1.707-0.80468 0.42632-0.18734 1.123-0.47887 1.5488-0.64649 0.42633-0.16761 1.2091-0.45003 1.7383-0.62891 0.52962-0.17889 1.3207-0.43033 1.7598-0.55664 0.43901-0.1263 1.0514-0.29168 1.3613-0.36914 0.30988-0.07747 0.80678-0.19497 1.1035-0.25977 0.29721-0.06485 0.75566-0.16132 1.0195-0.21484 0.26435-0.05348 0.86846-0.15878 1.3398-0.23438 0.47186-0.07555 1.2154-0.1803 1.6543-0.23242 0.43901-0.05258 1.2326-0.13313 1.7617-0.17773 0.73151-0.06249 1.4816-0.0831 3.123-0.084 1.3673-0.0011 2.4603 0.02117 2.9805 0.06058 0.45216 0.03423 1.2663 0.11274 1.8086 0.17384 0.54231 0.06058 1.3442 0.16628 1.7832 0.23437 0.43901 0.06812 1.2218 0.20625 1.7383 0.3086 0.51646 0.1019 1.3605 0.29181 1.877 0.42187 0.51646 0.12958 1.2562 0.32928 1.6445 0.44336 0.38783 0.1141 1.1182 0.34667 1.6211 0.51758 0.50238 0.17137 1.3033 0.4675 1.7813 0.65625 0.47796 0.18874 1.1766 0.47933 1.5508 0.64649 0.37468 0.16667 1.1134 0.52036 1.6426 0.78516 0.52961 0.26481 1.2787 0.65916 1.666 0.8789 0.38736 0.21926 0.9474 0.54977 1.2441 0.73242 0.29674 0.18264 0.88706 0.56348 1.3106 0.8457 0.42398 0.28266 1.1857 0.82575 1.6914 1.207 0.50614 0.38172 1.2357 0.96132 1.623 1.2891 0.38735 0.32725 1.0762 0.94173 1.5293 1.3652 0.45262 0.4235 1.1518 1.1237 1.5547 1.5566 0.40332 0.43289 0.93208 1.0202 1.1738 1.3047 0.24132 0.28453 0.59867 0.71779 0.79492 0.96289 0.1958 0.24462 0.53613 0.68763 0.75586 0.98437 0.2202 0.29673 0.62317 0.86705 0.89453 1.2676 0.27185 0.40003 0.71538 1.0987 0.98633 1.5508 0.27092 0.45168 0.68517 1.1801 0.91992 1.6191 0.23523 0.43901 0.59717 1.1643 0.80469 1.6113 0.20706 0.44652 0.54279 1.2274 0.74609 1.7363 0.2033 0.50849 0.49749 1.3047 0.6543 1.7695 0.1573 0.46483 0.39143 1.2241 0.52148 1.6875 0.13006 0.46294 0.33128 1.2668 0.44727 1.7851 0.11597 0.51788 0.27603 1.3304 0.35351 1.8047 0.0779 0.47422 0.1832 1.234 0.23438 1.6895 0.0507 0.45544 0.11597 1.1018 0.14648 1.4375 0.0367 0.40238 0.0672 2.5303 0.0879 6.2461l0.0312 5.6328 0.0821 0.2832c0.0455 0.15494 0.17482 0.47071 0.28516 0.70312 0.10989 0.23242 0.29823 0.55272 0.41796 0.71095 0.1202 0.15822 0.35939 0.4195 0.53125 0.58008 0.1723 0.16104 0.42751 0.36642 0.56837 0.45702 0.14131 0.09019 0.38668 0.22464 0.54491 0.29883 0.15776 0.07375 0.45747 0.1789 0.66406 0.23243 0.26341 0.06812 0.52163 0.09571 0.8672 0.09571 0.34463 0 0.60667-0.0286 0.86913-0.09571 0.20659-0.05348 0.53352-0.1711 0.72462-0.26173 0.19156-0.09064 0.47809-0.25848 0.63867-0.37304 0.16058-0.11504 0.44851-0.37686 0.63867-0.58204 0.19015-0.20518 0.41602-0.49054 0.50195-0.63281 0.0859-0.14274 0.22806-0.42311 0.31446-0.625 0.0868-0.20189 0.19009-0.53139 0.23047-0.73047 0.0644-0.316 0.0728-1.0246 0.0723-5.5859-0.00046-2.874-0.0215-5.5953-0.0468-6.0469-0.0253-0.45215-0.0788-1.1928-0.11915-1.6445-0.0409-0.45215-0.12607-1.2115-0.18945-1.6895-0.0634-0.47798-0.17791-1.2377-0.25585-1.6895-0.0784-0.45215-0.21642-1.1538-0.30469-1.5586-0.0883-0.40473-0.23563-1.0383-0.32812-1.4082-0.0924-0.36999-0.27167-1.0318-0.39844-1.4707-0.12677-0.439-0.37729-1.2326-0.55664-1.7617-0.17889-0.52961-0.46176-1.3105-0.62891-1.7363-0.16762-0.42586-0.43512-1.0809-0.59571-1.4551-0.16104-0.37468-0.55274-1.2099-0.87109-1.8555-0.31833-0.64558-0.75671-1.4915-0.97461-1.8789-0.21739-0.38735-0.56077-0.97878-0.76171-1.3145-0.20143-0.3357-0.56835-0.91683-0.8125-1.291-0.24463-0.37468-0.69184-1.0293-0.9961-1.457-0.30424-0.42774-0.79183-1.0842-1.082-1.457s-0.7286-0.92006-0.97656-1.2168c-0.2479-0.2972-0.70525-0.82591-1.0156-1.1738-0.31035-0.34792-0.95563-1.0317-1.4336-1.5195-0.47798-0.4883-1.1952-1.187-1.5957-1.5527-0.40003-0.36623-0.96006-0.86482-1.2441-1.1094-0.28405-0.24462-0.78049-0.65788-1.1035-0.91798-0.32255-0.25964-0.97711-0.76473-1.4551-1.1211-0.47796-0.35636-1.3342-0.9555-1.9024-1.334-0.56812-0.37796-1.4224-0.92263-1.9004-1.209-0.47797-0.28641-1.2711-0.73968-1.7617-1.0059-0.49065-0.26576-1.3366-0.69902-1.8789-0.96289-0.54229-0.26387-1.3242-0.62735-1.7383-0.80859-0.41364-0.18077-1.1524-0.4882-1.6426-0.68164-0.48971-0.19391-1.25-0.47788-1.6895-0.63282-0.43948-0.15494-1.1802-0.40023-1.6445-0.54297-0.46436-0.14274-1.2663-0.37431-1.7832-0.51563-0.51647-0.14086-1.3184-0.34256-1.7832-0.44726-0.46435-0.10471-1.1142-0.24333-1.4434-0.30859-0.32913-0.06531-0.97343-0.18128-1.4316-0.25782-0.45873-0.07702-1.1517-0.18123-1.5391-0.23242-0.38735-0.05067-1.0101-0.12463-1.3848-0.16406-0.3742-0.03896-0.95533-0.09345-1.291-0.1211-0.33571-0.02725-0.97952-0.07082-1.4316-0.09571-0.45134-0.02488-1.6349-0.04324-2.6289-0.03907zm-33.523 15.568c-0.14226-0.01126-0.39949-0.0034-0.57226 0.01565-0.17279 0.0188-0.43367 0.06812-0.58204 0.11136-0.14838 0.04324-0.42968 0.15968-0.625 0.25782-0.19579 0.09863-0.48584 0.27567-0.64453 0.39257-0.15823 0.11691-0.41334 0.33561-0.56641 0.48633-0.15306 0.15025-0.54175 0.59076-0.86524 0.98047-0.32301 0.38923-0.83218 1.035-1.1289 1.4336-0.29722 0.39815-0.72072 0.98746-0.94141 1.3105-0.22068 0.32256-0.55438 0.82975-0.74219 1.127-0.1878 0.29673-0.57329 0.94101-0.85546 1.4316-0.28218 0.49064-0.75243 1.3787-1.0449 1.9727-0.29297 0.59394-0.6734 1.4061-0.8457 1.8066-0.17279 0.40003-0.44124 1.0545-0.59571 1.4551-0.15447 0.40003-0.41731 1.1305-0.58398 1.6211-0.16669 0.49063-0.40643 1.2504-0.5332 1.6894-0.12676 0.439-0.30593 1.1008-0.39843 1.4707-0.09255 0.36999-0.23985 1.0035-0.32812 1.4082-0.08827 0.40472-0.23656 1.1696-0.32812 1.6992-0.09109 0.52914-0.21787 1.3751-0.28125 1.8789-0.06339 0.50332-0.14658 1.2738-0.18554 1.7129-0.03941 0.439-0.0948 1.2742-0.12306 1.8555-0.03524 0.73668-0.04707 8.2361-0.03716 24.766l0.01565 23.711 0.084 0.2832c0.04605 0.15494 0.15586 0.43423 0.24414 0.6211 0.08827 0.18734 0.22846 0.43996 0.31251 0.5625 0.08355 0.12302 0.23663 0.32729 0.34179 0.45313 0.10471 0.12535 0.33978 0.34812 0.52148 0.49413 0.18124 0.14602 0.497 0.35195 0.70312 0.45899 0.20565 0.10663 0.51105 0.2385 0.67773 0.29296 0.16668 0.0545 0.47934 0.11965 0.69532 0.14454 0.25636 0.0292 0.52709 0.0271 0.77734-0.003 0.21128-0.0259 0.56034-0.10786 0.77538-0.18163 0.21504-0.0738 0.56107-0.23643 0.76953-0.36133 0.20847-0.12537 0.54014-0.38664 0.73828-0.58008 0.19813-0.19392 0.45021-0.48552 0.56054-0.64845 0.10989-0.16292 0.27157-0.44687 0.35938-0.6328 0.08737-0.18547 0.19813-0.46421 0.24414-0.61915l0.08208-0.2832 0.02736-24.109c0.0197-17.996 0.04076-24.259 0.08208-24.697 0.03051-0.32304 0.08906-0.8934 0.1289-1.2676 0.03941-0.37468 0.12568-1.0292 0.19141-1.4551 0.06575-0.42586 0.18275-1.0931 0.25977-1.4805 0.07746-0.38736 0.23308-1.0778 0.34765-1.5352 0.11456-0.45779 0.31174-1.1795 0.43946-1.6035 0.12818-0.42398 0.36332-1.1375 0.52343-1.5859 0.15964-0.4484 0.42246-1.1322 0.58399-1.5195 0.16104-0.38735 0.45617-1.0526 0.6543-1.4785 0.19814-0.42586 0.55235-1.1352 0.78711-1.5742 0.23476-0.43901 0.61717-1.1146 0.84961-1.5019 0.23242-0.38735 0.67241-1.0768 0.97852-1.5332 0.30566-0.45638 0.78306-1.132 1.0605-1.5019 0.27795-0.36999 0.6573-0.86331 0.8418-1.0957 0.18453-0.23241 0.40845-0.56089 0.5-0.72851 0.09154-0.16809 0.23728-0.50492 0.32226-0.75001l0.1543-0.44726v-0.70312c0.000924-0.60287-0.01441-0.75326-0.1055-1.043-0.06711-0.21316-0.21337-0.49971-0.39648-0.77344-0.15964-0.23898-0.49179-0.63743-0.73828-0.88672-0.2465-0.24932-0.58324-0.54397-0.74805-0.6543-0.16481-0.11034-0.45383-0.27055-0.64258-0.35742-0.18874-0.08737-0.47575-0.18846-0.63867-0.22462-0.16339-0.03614-0.41437-0.07465-0.55664-0.08591zm33.525 0.86328c-0.60662 0.0034-1.4105 0.02421-1.7852 0.04493-0.37421 0.02117-1.0184 0.07048-1.4316 0.11136-0.41318 0.04132-1.1205 0.12856-1.5703 0.19336-0.45027 0.06531-1.1469 0.18182-1.5488 0.25976-0.40238 0.07747-1.08 0.22576-1.5059 0.32812-0.42538 0.10235-1.1692 0.30008-1.6523 0.44141-0.48361 0.14133-1.2131 0.37492-1.6211 0.51954-0.40755 0.14462-1.0683 0.39761-1.4688 0.56054-0.40003 0.16291-0.96931 0.40525-1.2656 0.53907-0.2958 0.13381-0.83327 0.39198-1.1934 0.57226-0.3606 0.18077-0.91661 0.47494-1.2363 0.65429-0.31926 0.17889-0.82801 0.47565-1.1309 0.66017-0.30284 0.18499-0.83109 0.52281-1.1738 0.75194-0.34275 0.22865-0.96591 0.67327-1.3848 0.98829-0.41881 0.31505-1.0036 0.77648-1.3008 1.0234-0.29674 0.24744-0.80392 0.69356-1.127 0.99219-0.32255 0.29815-0.91692 0.87866-1.3184 1.2891-0.40145 0.40989-0.99802 1.0608-1.3281 1.4473-0.33007 0.38643-0.85064 1.0328-1.1562 1.4375-0.30566 0.40472-0.79896 1.1043-1.0957 1.5527-0.29627 0.4484-0.71007 1.1111-0.92187 1.4727-0.21128 0.36153-0.61212 1.111-0.88868 1.666-0.27654 0.55497-0.61135 1.2686-0.74609 1.5859-0.13429 0.31692-0.38112 0.94015-0.54687 1.3848-0.16527 0.44416-0.39676 1.1263-0.51367 1.5137-0.11738 0.38736-0.28938 0.99982-0.38282 1.3613-0.09345 0.36153-0.2408 1.016-0.32812 1.4551-0.08681 0.43901-0.20131 1.0936-0.2539 1.4551-0.05213 0.36153-0.1276 0.97594-0.16797 1.3633-0.04042 0.38736-0.09435 1.3156-0.1211 2.0645-0.02725 0.75452-0.04211 3.1112-0.03322 5.2832l0.01565 3.9199 0.1055 0.375c0.05776 0.20659 0.17892 0.53351 0.26953 0.7246 0.09064 0.19157 0.25692 0.47701 0.36914 0.63477 0.11214 0.1573 0.36118 0.43355 0.55274 0.61524 0.19157 0.18218 0.5124 0.4337 0.71288 0.55858 0.20049 0.1249 0.53628 0.28661 0.74805 0.35938 0.21127 0.07274 0.54242 0.15791 0.73633 0.1875 0.20095 0.03096 0.49898 0.04132 0.69336 0.02342 0.18734-0.01689 0.49992-0.07184 0.69336-0.1211 0.19392-0.04977 0.49946-0.1643 0.68164-0.25586 0.18218-0.09154 0.45264-0.2496 0.59961-0.34961 0.14742-0.10044 0.41134-0.32642 0.58789-0.50391 0.17654-0.17748 0.41473-0.46292 0.5293-0.63476s0.25989-0.43208 0.32422-0.57812c0.06474-0.14602 0.1639-0.41759 0.22071-0.60352l0.10348-0.33789 0.02927-5.0703c0.02488-4.4065 0.03929-5.1543 0.10933-5.7051 0.04459-0.34885 0.13498-0.95053 0.20117-1.3379 0.06621-0.38735 0.21356-1.0788 0.32812-1.5371 0.11455-0.45826 0.33584-1.2077 0.49219-1.6641 0.15588-0.45637 0.40951-1.1269 0.56445-1.4902 0.15447-0.36341 0.45676-0.99892 0.66993-1.4121 0.21315-0.41318 0.57354-1.0553 0.80078-1.4258 0.22725-0.37092 0.60407-0.94129 0.8379-1.2676 0.23334-0.3268 0.61173-0.82534 0.84179-1.1094 0.23007-0.28405 0.6613-0.78457 0.95898-1.1113 0.29721-0.32632 0.78689-0.82374 1.0879-1.1055 0.30097-0.28171 0.77014-0.70059 1.041-0.9297 0.27138-0.22959 0.7678-0.62132 1.1035-0.87109 0.3357-0.25025 0.88503-0.63482 1.2207-0.85546 0.3357-0.2202 0.89572-0.56516 1.2441-0.76562 0.34885-0.20049 1.0137-0.54854 1.4785-0.77345 0.46483-0.22489 1.1615-0.53552 1.5488-0.6914 0.38735-0.15588 1.086-0.41147 1.5508-0.56641 0.46483-0.15447 1.2272-0.37674 1.6953-0.49413 0.46811-0.11737 1.1878-0.27706 1.5977-0.35547 0.40989-0.07837 1.0726-0.18515 1.4727-0.23632 0.4005-0.05168 1.0022-0.118 1.3379-0.15039 0.35308-0.03378 1.2834-0.059 2.207-0.05855 1.1691 0.000462 1.816 0.02387 2.418 0.084 0.45214 0.04504 1.0965 0.12258 1.4336 0.17188 0.33711 0.04932 0.89673 0.1438 1.2441 0.21094 0.34697 0.06711 0.92747 0.19697 1.2891 0.28712 0.36153 0.08974 0.94259 0.24733 1.291 0.35156 0.34885 0.10426 0.9926 0.32488 1.4316 0.48828 0.43899 0.1634 1.1165 0.438 1.5039 0.60938 0.38735 0.17184 0.98503 0.4594 1.3301 0.64063 0.34462 0.18077 0.8626 0.46824 1.1504 0.63867 0.28781 0.17045 0.77799 0.477 1.0879 0.68359 0.30989 0.20612 0.79653 0.54848 1.082 0.75977 0.28499 0.21128 0.78189 0.60344 1.1035 0.87109 0.32162 0.2681 0.97465 0.87895 1.4531 1.3574 0.47891 0.47891 1.072 1.1134 1.3184 1.4102 0.24651 0.29673 0.60789 0.75153 0.80274 1.0098 0.19438 0.25824 0.55475 0.77571 0.80078 1.1504 0.24601 0.37421 0.56789 0.89011 0.71485 1.1465 0.14743 0.25636 0.41284 0.75626 0.58984 1.1094 0.17654 0.35308 0.43992 0.92348 0.58593 1.2695 0.1465 0.34604 0.4006 1.0309 0.56446 1.5215 0.16386 0.49066 0.37228 1.1893 0.46289 1.5508 0.0906 0.36153 0.2159 0.94218 0.27929 1.291 0.0638 0.34885 0.14906 0.8977 0.18945 1.2207 0.04 0.32256 0.0877 0.67014 0.1055 0.77344 0.0173 0.10325 0.045 13.289 0.0606 29.299l0.0274 29.109 0.15235 0.44727c0.0831 0.24509 0.24793 0.61208 0.36719 0.81445 0.11878 0.20284 0.37803 0.53662 0.57617 0.74415 0.19813 0.20753 0.4892 0.46981 0.64648 0.58202 0.1573 0.11226 0.44125 0.27853 0.63281 0.36915 0.19111 0.0906 0.51646 0.20812 0.72071 0.25976 0.25212 0.0643 0.52214 0.0943 0.84375 0.0938 0.30566 0 0.60733-0.0336 0.84961-0.0918 0.20658-0.0498 0.50122-0.14481 0.65429-0.21289 0.15259-0.0681 0.41597-0.21436 0.58594-0.32422 0.16949-0.11034 0.43382-0.31368 0.58594-0.45313 0.15214-0.13896 0.38057-0.39245 0.50781-0.56054 0.12772-0.16857 0.3146-0.47458 0.41602-0.68164 0.10145-0.20659 0.22764-0.54186 0.27929-0.7461l0.0938-0.37304v-28.871c-0.00047-19.285-0.0169-29.099-0.0489-29.537-0.0268-0.36153-0.0895-1.0058-0.14062-1.4316-0.0511-0.42586-0.14614-1.0865-0.21094-1.4668-0.0643-0.37984-0.19056-1.0133-0.27929-1.4082-0.0892-0.3944-0.23759-0.99237-0.33009-1.3281-0.092-0.33571-0.23362-0.82184-0.31249-1.0801-0.0794-0.25824-0.26733-0.81065-0.41993-1.2285-0.15259-0.4174-0.41643-1.0827-0.58593-1.4785-0.16903-0.39534-0.51349-1.1315-0.76562-1.6348-0.25261-0.50381-0.64436-1.2337-0.8711-1.6211-0.22679-0.38736-0.63287-1.0373-0.90234-1.4453-0.26952-0.40801-0.74124-1.0733-1.0469-1.4785-0.30566-0.40566-0.74924-0.96984-0.98633-1.2539-0.23757-0.28407-0.7253-0.8364-1.084-1.2266-0.35872-0.39018-0.95316-0.99141-1.3223-1.3379-0.36903-0.34651-0.8403-0.77926-1.0469-0.96094-0.20659-0.18171-0.59774-0.51072-0.86913-0.73046-0.27091-0.21974-0.7027-0.55804-0.96094-0.75195-0.25824-0.19344-0.6915-0.5061-0.96289-0.69532-0.27092-0.18923-0.7781-0.52541-1.127-0.74609-0.34838-0.22068-0.88735-0.54721-1.1973-0.72656-0.30988-0.17935-0.90125-0.50176-1.3145-0.7168-0.41317-0.21456-1.0379-0.52099-1.3867-0.67968-0.34885-0.1587-1.045-0.45287-1.5488-0.6543-0.50332-0.20189-1.299-0.49598-1.7676-0.65234-0.46859-0.15635-1.1211-0.36016-1.4512-0.45313-0.33007-0.093-0.94093-0.2511-1.3574-0.35157-0.41647-0.09998-1.1469-0.25555-1.623-0.3457-0.47609-0.09019-1.269-0.21598-1.7598-0.28125-0.49064-0.06474-1.1344-0.14073-1.4316-0.16797-0.29673-0.0268-0.90921-0.06846-1.3613-0.09379-0.45168-0.02533-1.3167-0.04436-1.9238-0.04098zm-0.75195 15.938c-0.11597 0.01013-0.49685 0.03975-0.8457 0.06834-0.34838 0.02815-1.0003 0.11285-1.4492 0.1875-0.4484 0.0751-1.1388 0.2214-1.5332 0.32422-0.39487 0.1028-0.97141 0.27076-1.2832 0.375-0.31175 0.10426-0.78353 0.27716-1.0488 0.38281-0.26576 0.10516-0.7816 0.33315-1.1445 0.50781-0.36294 0.17466-0.89118 0.45176-1.1738 0.61328-0.28265 0.16151-0.77659 0.46856-1.0996 0.6836-0.32255 0.21503-0.81529 0.56925-1.0937 0.78711-0.27842 0.21786-0.76299 0.62696-1.0762 0.9082-0.31316 0.28124-0.79069 0.75403-1.0625 1.0508-0.27185 0.29673-0.65839 0.74432-0.85742 0.99415-0.19908 0.24978-0.49886 0.65171-0.66601 0.89257s-0.45571 0.69015-0.64258 1c-0.18639 0.30988-0.48455 0.85918-0.66016 1.2207-0.17608 0.36153-0.4035 0.86873-0.50586 1.127-0.10235 0.25822-0.27078 0.7336-0.37501 1.0566-0.10471 0.32255-0.2438 0.7984-0.30859 1.0566-0.06474 0.25824-0.15929 0.6915-0.21094 0.96289-0.05168 0.2709-0.13274 0.79915-0.17969 1.1738l-0.08591 0.67968v65.404l0.10347 0.38672c0.05686 0.21316 0.19083 0.56683 0.29883 0.78515 0.10843 0.21834 0.33076 0.56538 0.49415 0.77149 0.16292 0.20611 0.45039 0.50131 0.63867 0.65625 0.1878 0.15541 0.5205 0.37817 0.74023 0.49414 0.22021 0.11597 0.5688 0.25921 0.77539 0.31836 0.3019 0.0869 0.48684 0.10741 0.93946 0.1055 0.38172-0.001 0.66255-0.0286 0.86914-0.084 0.16809-0.0452 0.49415-0.17442 0.72656-0.2871 0.2324-0.11316 0.57117-0.32314 0.75194-0.4668 0.18076-0.14415 0.45951-0.41563 0.61915-0.60156 0.16011-0.18593 0.38029-0.49291 0.48828-0.68165 0.10798-0.18875 0.25738-0.52035 0.33203-0.73633 0.08264-0.24133 0.15199-0.57233 0.17969-0.85546 0.02815-0.28922 0.04628-12.502 0.04684-32.619 0.0011-28.869 0.009-32.206 0.0742-32.654 0.04042-0.27466 0.10404-0.62631 0.14258-0.78125 0.03806-0.15494 0.1355-0.48148 0.21484-0.72656 0.07938-0.24557 0.2657-0.70248 0.41407-1.0156 0.14883-0.31317 0.40762-0.77826 0.57617-1.0332 0.16856-0.25496 0.47505-0.66557 0.68164-0.91211 0.20659-0.2465 0.5095-0.57249 0.67384-0.72462 0.16387-0.15213 0.45639-0.40209 0.64843-0.55469 0.19203-0.15259 0.50265-0.3801 0.6914-0.5078 0.18874-0.12724 0.55942-0.34641 0.82422-0.48633 0.26481-0.14037 0.68724-0.34107 0.9375-0.44531 0.25073-0.10426 0.70096-0.26242 1.002-0.35351 0.30097-0.09154 0.82565-0.21834 1.166-0.28125 0.3404-0.06294 0.94618-0.13839 1.3457-0.16797 0.39957-0.02961 0.96889-0.03986 1.2656-0.02342 0.29721 0.01644 0.78333 0.06114 1.0801 0.09965 0.2972 0.03851 0.7623 0.12318 1.0332 0.1875 0.27139 0.06384 0.69436 0.1809 0.93946 0.25977 0.24556 0.07938 0.66854 0.24161 0.93944 0.36133 0.27139 0.11973 0.66113 0.30973 0.8672 0.42382 0.20659 0.11409 0.54895 0.32252 0.75976 0.46289 0.21081 0.13992 0.57946 0.41966 0.82032 0.6211 0.24132 0.20142 0.57856 0.51353 0.74805 0.69336 0.1695 0.17984 0.42717 0.4765 0.57226 0.65821 0.14508 0.18171 0.38484 0.51846 0.5332 0.74805 0.1479 0.22912 0.39117 0.6706 0.53906 0.98047 0.14744 0.30988 0.34251 0.79602 0.4336 1.0801 0.0911 0.28406 0.19993 0.69433 0.24219 0.91407 0.0418 0.21973 0.0901 0.44249 0.10741 0.49413 0.0173 0.05168 0.0426 4.3299 0.0566 9.5078l0.0253 9.4141 0.13086 0.42188c0.0729 0.23241 0.21451 0.57688 0.3164 0.76562 0.10145 0.18923 0.28052 0.46844 0.39648 0.61915 0.11599 0.15072 0.34957 0.39965 0.51954 0.55273 0.16996 0.15352 0.47177 0.37426 0.66992 0.49023 0.1986 0.11598 0.47736 0.25516 0.61915 0.31055 0.14227 0.055 0.39489 0.13291 0.5625 0.17188 0.16762 0.0385 0.51255 0.0698 0.76562 0.0703 0.25402 0 0.61289-0.0323 0.79883-0.0742 0.18593-0.0413 0.513-0.15781 0.72851-0.25782 0.21552-0.1 0.52295-0.27356 0.68164-0.38672 0.15918-0.11362 0.45031-0.37646 0.64845-0.58399 0.19813-0.20753 0.4583-0.5427 0.57617-0.74414 0.11784-0.20142 0.26622-0.52585 0.33007-0.72069 0.0638-0.19486 0.13785-0.49059 0.16602-0.65821 0.0357-0.2141 0.0459-3.0801 0.0351-9.6016l-0.0136-9.2969-0.084-0.63477c-0.0455-0.34885-0.14564-0.95053-0.22266-1.3379-0.0775-0.38735-0.22326-0.99161-0.32421-1.3438-0.101-0.35214-0.26063-0.84857-0.35548-1.1035-0.0948-0.25446-0.29912-0.74881-0.45312-1.0977-0.15401-0.34885-0.43437-0.91308-0.625-1.2539-0.19016-0.34134-0.49868-0.84854-0.68555-1.127-0.18639-0.2789-0.46615-0.6762-0.62109-0.88281-0.15494-0.20659-0.39781-0.51207-0.54102-0.67969-0.14367-0.16761-0.44962-0.51202-0.67969-0.76368-0.23006-0.25167-0.66895-0.68234-0.97461-0.95702-0.30565-0.27466-0.78408-0.6776-1.0625-0.89453-0.27844-0.21645-0.77126-0.57066-1.0957-0.78711-0.32397-0.21645-0.86294-0.54704-1.1973-0.73438-0.33383-0.18781-0.80662-0.43475-1.0508-0.54883-0.24415-0.11456-0.6779-0.30403-0.96289-0.42187-0.28547-0.11738-0.82452-0.31557-1.1992-0.44141-0.37421-0.1263-1.0185-0.31264-1.4316-0.41407-0.41317-0.10145-1.0132-0.2277-1.332-0.28124-0.3188-0.05405-0.86805-0.13041-1.2207-0.16797-0.35219-0.03806-1.0933-0.07555-1.6484-0.08591-0.55497-0.01013-1.1043-0.01013-1.2207 0zm0.86914 14.197v0.0056c-0.15494 0.0023-0.43057 0.03108-0.61133 0.06452-0.18076 0.03378-0.46931 0.11435-0.64257 0.17773-0.17279 0.06384-0.46946 0.20607-0.65821 0.3164-0.22208 0.131-0.50731 0.36732-0.8125 0.67578-0.285 0.28829-0.54372 0.60513-0.66016 0.80468-0.10516 0.18029-0.24788 0.46879-0.31642 0.64063-0.06857 0.17232-0.1568 0.46345-0.19531 0.64844-0.06249 0.29627-0.07229 2.6212-0.07229 19.604 0 16.957 0.009 19.308 0.07026 19.604 0.03896 0.18405 0.13705 0.4961 0.21875 0.69141 0.08129 0.19579 0.24807 0.50587 0.3711 0.68945 0.12301 0.18406 0.35654 0.46646 0.51758 0.6289 0.16058 0.16199 0.42192 0.38787 0.58203 0.50196 0.16011 0.11458 0.4471 0.28242 0.63867 0.37304 0.19108 0.0906 0.51646 0.20812 0.72071 0.25977 0.25824 0.0662 0.5242 0.0938 0.87304 0.0938 0.34368 0 0.61662-0.0279 0.8711-0.0918 0.20424-0.0511 0.5671-0.19127 0.80468-0.31054 0.23805-0.11925 0.57535-0.33593 0.75001-0.48243 0.17467-0.14696 0.44209-0.41541 0.59375-0.5957 0.15728-0.18688 0.37345-0.52636 0.50585-0.79492 0.12677-0.25824 0.26743-0.60777 0.31251-0.77539l0.0821-0.30469v-39.033l-0.084-0.30664c-0.0455-0.16809-0.15439-0.45711-0.24219-0.64258-0.0878-0.18593-0.2495-0.47082-0.35937-0.63281-0.11034-0.16245-0.33932-0.43356-0.50976-0.60352-0.16996-0.17045-0.44357-0.39998-0.60743-0.51172-0.16433-0.11124-0.45944-0.27704-0.65429-0.36718-0.19531-0.09019-0.54501-0.20359-0.7793-0.25195-0.23381-0.0483-0.55209-0.0858-0.70703-0.084zm42.656 14.719v0.002c-0.28407-0.0136-0.58017 0.005-0.81446 0.0489-0.20235 0.0379-0.52624 0.13503-0.71875 0.21485-0.1925 0.0803-0.51233 0.2508-0.71093 0.38086-0.19861 0.12958-0.50097 0.3755-0.67188 0.54687-0.17138 0.17091-0.41729 0.47521-0.54687 0.67383-0.13006 0.1986-0.3005 0.51484-0.37891 0.70312-0.0785 0.18828-0.17697 0.51216-0.21876 0.71875l-0.0742 0.37501 0.0117 12.584 0.0136 12.582 0.10741 0.34375c0.0587 0.18923 0.18243 0.49619 0.2754 0.68164 0.0934 0.18547 0.23361 0.43286 0.31249 0.54882 0.0789 0.11598 0.28364 0.35619 0.45313 0.53321 0.1695 0.17747 0.43848 0.41568 0.59765 0.52929 0.1587 0.11411 0.46418 0.28868 0.6797 0.38868 0.2155 0.1 0.53992 0.21812 0.72069 0.26367 0.20941 0.0521 0.50818 0.0821 0.82227 0.0821 0.31412 0 0.6109-0.0299 0.82031-0.0821 0.18076-0.0455 0.50521-0.16366 0.72071-0.26367 0.21552-0.1 0.52295-0.27457 0.68164-0.38868 0.15918-0.11361 0.42621-0.35182 0.59571-0.52929 0.16949-0.17702 0.37423-0.41723 0.45311-0.53321 0.0789-0.11596 0.21907-0.36437 0.31251-0.55078 0.0935-0.18593 0.21913-0.50169 0.27735-0.70312l0.1055-0.36718v-25.447l-0.15234-0.44726c-0.0831-0.24556-0.24794-0.6121-0.3672-0.81445-0.11878-0.20284-0.37803-0.53662-0.57617-0.74414-0.19813-0.20753-0.48764-0.46825-0.64258-0.57812-0.15494-0.1099-0.43173-0.27619-0.61719-0.36915-0.18547-0.093-0.49242-0.21062-0.68164-0.26367-0.18921-0.053-0.54349-0.10787-0.78905-0.11914zm-71.025 2.6563v0.002c-0.28923 0.002-0.58246 0.0336-0.78905 0.0879-0.18076 0.0479-0.4231 0.12485-0.53907 0.16993-0.11597 0.0451-0.37366 0.17653-0.57226 0.29296-0.19813 0.11598-0.50003 0.33725-0.67188 0.49219-0.17185 0.1554-0.41775 0.42183-0.54687 0.5918-0.12864 0.17043-0.31851 0.47848-0.41992 0.68554-0.1019 0.2066-0.23129 0.55566-0.28905 0.7754l-0.1055 0.39844v35.871l0.08591 0.32813c0.04785 0.18077 0.16905 0.50667 0.26953 0.72265 0.09998 0.21598 0.28636 0.53231 0.41407 0.70508 0.12818 0.17232 0.35764 0.43306 0.50976 0.57812 0.15212 0.14508 0.43959 0.37041 0.63867 0.5 0.19907 0.13006 0.52554 0.29847 0.7246 0.375 0.19907 0.0764 0.49426 0.16581 0.65625 0.19727 0.18264 0.0357 0.50532 0.0492 0.84571 0.0351 0.45074-0.0187 0.62372-0.05 0.95898-0.16602 0.22537-0.0779 0.57233-0.23302 0.76953-0.3457 0.19767-0.11316 0.53551-0.37186 0.75195-0.57423 0.23007-0.2155 0.50693-0.53889 0.66797-0.77929 0.15635-0.23381 0.33775-0.58136 0.41992-0.8086 0.07938-0.21927 0.16667-0.56724 0.19531-0.77148 0.03851-0.27091 0.04943-5.1939 0.03907-18.166l-0.01362-17.795-0.084-0.27929c-0.04605-0.15306-0.13232-0.40203-0.19336-0.55274-0.06103-0.15072-0.18266-0.39297-0.26953-0.53711-0.08636-0.14415-0.28458-0.41314-0.44141-0.59766-0.15728-0.18452-0.4432-0.4546-0.63477-0.60156-0.19203-0.14649-0.54984-0.36153-0.79492-0.47656-0.24509-0.11504-0.59728-0.24383-0.78321-0.28516-0.19063-0.0422-0.53918-0.0742-0.79883-0.0723zm42.572 11.992v0.002c-0.36482-0.0145-0.63164-0.00071-0.82227 0.043-0.15494 0.0362-0.42503 0.12247-0.60156 0.19336-0.17654 0.0709-0.48397 0.23463-0.68164 0.36328-0.19767 0.12818-0.52779 0.40739-0.73438 0.61914-0.20659 0.21223-0.46677 0.53719-0.57617 0.72265-0.10944 0.18499-0.24912 0.46373-0.3125 0.61915-0.0629 0.15541-0.14814 0.43421-0.18945 0.62109l-0.0762 0.33984 0.0136 17.326 0.0136 17.324 0.14649 0.41406c0.0816 0.22772 0.25205 0.58598 0.37695 0.79492 0.12864 0.21458 0.39176 0.54723 0.60351 0.76367 0.2066 0.21128 0.50903 0.47365 0.67384 0.58398 0.1648 0.11035 0.45072 0.2705 0.63476 0.35548 0.18405 0.0846 0.46692 0.18868 0.6289 0.23047 0.16199 0.0422 0.45672 0.09 0.65626 0.1055 0.19956 0.0151 0.52141 0.002 0.71485-0.0274 0.19297-0.0301 0.4958-0.10494 0.67186-0.16601 0.17654-0.0615 0.48101-0.20465 0.67775-0.3164 0.19672-0.1117 0.53456-0.371 0.75195-0.57619 0.21691-0.20471 0.48591-0.49942 0.59765-0.65624 0.1117-0.15635 0.27758-0.43306 0.36915-0.61523 0.0911-0.18218 0.21575-0.48961 0.27538-0.68164l0.10742-0.34961 0.0136-17.137c0.0101-14.46-0.00053-17.197-0.0547-17.514-0.0361-0.20659-0.13066-0.5449-0.21094-0.75196-0.0798-0.20752-0.24978-0.53858-0.3789-0.73438-0.12864-0.19626-0.38478-0.50587-0.56837-0.68945s-0.47417-0.42887-0.64647-0.54297c-0.17232-0.11456-0.44077-0.26348-0.59571-0.33203-0.15494-0.0686-0.42862-0.16562-0.60938-0.2168-0.20284-0.0569-0.53578-0.10156-0.86914-0.11523zm-14.727 22.02c-0.13404 0.0113-0.2453 0.0346-0.39062 0.0742-0.19298 0.0521-0.48301 0.15683-0.64453 0.23243-0.16151 0.0755-0.39457 0.205-0.51758 0.28905-0.12301 0.0835-0.32526 0.23851-0.44922 0.3418-0.12394 0.10382-0.33853 0.3266-0.47656 0.4961-0.13804 0.16902-0.31877 0.42217-0.40235 0.56445-0.08355 0.14179-0.21292 0.41118-0.2871 0.5957-0.07375 0.18452-0.16611 0.48689-0.20508 0.67188-0.06148 0.29204-0.07082 1.326-0.07037 7.7871v7.4492l0.09379 0.38672c0.05067 0.21223 0.15496 0.52533 0.23243 0.69531 0.07702 0.17043 0.23512 0.45229 0.35156 0.62695 0.11597 0.17513 0.38036 0.48155 0.58789 0.67969 0.208 0.19861 0.49804 0.43734 0.64454 0.53124 0.14602 0.0935 0.40012 0.23051 0.56445 0.3047 0.16386 0.0747 0.47137 0.17585 0.6836 0.22656 0.24462 0.0587 0.54985 0.0938 0.83202 0.0938 0.27984 0 0.58719-0.0346 0.82618-0.0918 0.20988-0.0502 0.49837-0.14218 0.64062-0.20508 0.14228-0.0629 0.38351-0.1928 0.53516-0.28906 0.15166-0.0967 0.38985-0.27231 0.5293-0.39062 0.13992-0.11832 0.37249-0.3662 0.51758-0.54884 0.14508-0.18265 0.35145-0.50044 0.45898-0.70703 0.10753-0.20658 0.24506-0.53358 0.30469-0.72656l0.10742-0.35157 0.0136-7.5351c0.0123-6.769 0.005-7.5726-0.0625-7.9102-0.0413-0.20659-0.13932-0.52845-0.21679-0.71484-0.0775-0.18641-0.22584-0.47279-0.33008-0.63477-0.10426-0.16199-0.28551-0.40938-0.40429-0.54883-0.11832-0.13992-0.3714-0.37763-0.56251-0.5293-0.19061-0.15165-0.5407-0.36731-0.77734-0.48047-0.23617-0.11314-0.56627-0.24048-0.73437-0.28321-0.16761-0.0422-0.55926-0.0878-0.86914-0.0996-0.23312-0.009-0.38939-0.0113-0.52344 0z"
     id="outline" /><g
     style="opacity:0"
     id="logo-fade"><defs
       id="defs500179" /><linearGradient
       spreadMethod="pad"
       y2="0.30000001"
       x2="-0.1"
       y1="1.2"
       x1="0.30000001"
       id="3d_gradient2-logo-28D32E8544BE45C9B74E8A4B746F8FDC"><stop
         id="stop500156"
         stop-opacity="1"
         stop-color="#ffffff"
         offset="0%" /><stop
         id="stop500158"
         stop-opacity="1"
         stop-color="#000000"
         offset="100%" /></linearGradient><linearGradient
       gradientTransform="rotate(-30)"
       spreadMethod="pad"
       y2="0.30000001"
       x2="-0.1"
       y1="1.2"
       x1="0.30000001"
       id="3d_gradient3-logo-28D32E8544BE45C9B74E8A4B746F8FDC"><stop
         id="stop500161"
         stop-opacity="1"
         stop-color="#ffffff"
         offset="0%" /><stop
         id="stop500163"
         stop-opacity="1"
         stop-color="#cccccc"
         offset="50%" /><stop
         id="stop500165"
         stop-opacity="1"
         stop-color="#000000"
         offset="100%" /></linearGradient><path
       style="fill:#fdfdfd;stroke-width:0.84446228"
       d="m 99.856478,40.000466 c -0.994017,0.0047 -1.913298,0.01456 -2.042417,0.02206 -0.129118,0.008 -0.615072,0.03709 -1.079898,0.06432 -0.464826,0.0277 -1.256898,0.09203 -1.760704,0.142267 -0.503325,0.05071 -1.232493,0.135223 -1.619847,0.187335 -0.387355,0.05259 -0.968176,0.137571 -1.291183,0.189219 -0.322559,0.05165 -0.97755,0.168554 -1.455515,0.259647 -0.477502,0.09108 -1.238151,0.25072 -1.690276,0.354488 -0.451678,0.103768 -1.249382,0.303314 -1.771935,0.443224 -0.522579,0.139447 -1.262049,0.350267 -1.643324,0.468584 -0.381249,0.117853 -0.977972,0.310357 -1.326903,0.427264 -0.348383,0.116908 -1.0142,0.356363 -1.478992,0.531969 -0.464825,0.175598 -1.183176,0.460604 -1.596371,0.632916 -0.413179,0.172313 -1.12077,0.48267 -1.572895,0.689259 -0.451678,0.206589 -1.22312,0.582206 -1.713752,0.834337 -0.49065,0.252604 -1.166794,0.612252 -1.502467,0.799596 -0.335708,0.186871 -0.939971,0.539012 -1.342864,0.781752 -0.402378,0.243214 -0.862534,0.560141 -1.022138,0.704282 -0.159637,0.144614 -0.382186,0.392523 -0.494871,0.551214 -0.112685,0.1587 -0.283123,0.445108 -0.379375,0.637139 -0.09578,0.19203 -0.228191,0.551214 -0.293451,0.798185 -0.09719,0.367637 -0.119255,0.560141 -0.120665,1.059716 -0.0014,0.431487 0.02254,0.706629 0.08076,0.939042 0.04554,0.180766 0.184988,0.54136 0.310357,0.801944 0.175133,0.363879 0.306126,0.556855 0.567647,0.837157 0.186871,0.20002 0.463889,0.448393 0.615546,0.551215 0.151657,0.102821 0.448865,0.269974 0.660614,0.371394 0.212222,0.100947 0.554508,0.229128 0.761097,0.284533 0.289229,0.077 0.521169,0.100947 1.00947,0.104705 0.478912,0.0033 0.714145,-0.01691 0.962518,-0.0831 0.180766,-0.04789 0.434307,-0.133814 0.563426,-0.190629 0.129118,-0.05728 0.50943,-0.269037 0.845138,-0.470459 0.335707,-0.201894 0.888796,-0.521168 1.228777,-0.709449 0.339929,-0.188746 1.037168,-0.55216 1.549419,-0.808514 0.512251,-0.255889 1.279951,-0.618357 1.705729,-0.805701 0.426327,-0.187336 1.123557,-0.477501 1.54942,-0.645119 0.426326,-0.167617 1.208087,-0.451213 1.737227,-0.630095 0.529622,-0.178891 1.321668,-0.429139 1.760704,-0.555445 0.439002,-0.126298 1.051694,-0.292978 1.361611,-0.370449 0.309884,-0.07747 0.806639,-0.193441 1.103375,-0.258237 0.297208,-0.06479 0.756401,-0.161511 1.020279,-0.215042 0.264342,-0.05352 0.866756,-0.159164 1.338135,-0.23476 0.471869,-0.0756 1.217039,-0.180766 1.65599,-0.232886 0.439003,-0.05259 1.231564,-0.132403 1.760704,-0.177008 0.731516,-0.06245 1.480849,-0.08264 3.122315,-0.08358 1.367267,-0.0014 2.461267,0.02113 2.981457,0.06056 0.45215,0.03428 1.26534,0.111748 1.80765,0.172786 0.5423,0.06056 1.34515,0.166207 1.78418,0.234288 0.43901,0.06808 1.22076,0.207062 1.73723,0.30941 0.51647,0.101885 1.36161,0.291576 1.87809,0.421632 0.51647,0.129591 1.25689,0.329138 1.64518,0.443225 0.38782,0.114095 1.11697,0.347445 1.61984,0.518347 0.50239,0.171376 1.30436,0.465764 1.78233,0.654509 0.47797,0.188746 1.17523,0.479849 1.54942,0.647002 0.37468,0.16668 1.11418,0.520231 1.64332,0.785037 0.52962,0.264807 1.27944,0.660615 1.6668,0.880352 0.38735,0.219265 0.94749,0.54793 1.24423,0.730578 0.29674,0.182641 0.88694,0.563426 1.31044,0.845645 0.42397,0.28265 1.18461,0.825884 1.69027,1.207159 0.50614,0.381722 1.23672,0.961589 1.62407,1.289325 0.38736,0.327254 1.07475,0.941828 1.5278,1.365326 0.45263,0.423507 1.15312,1.124486 1.55601,1.557442 0.40331,0.432897 0.9306,1.020279 1.17237,1.304779 0.24133,0.284533 0.59911,0.71743 0.79536,0.962518 0.1958,0.244624 0.5362,0.688321 0.75593,0.985065 0.22021,0.296736 0.62259,0.867178 0.89395,1.267707 0.27185,0.40003 0.71554,1.097294 0.9865,1.549419 0.27092,0.451678 0.68503,1.180812 0.91979,1.619848 0.23522,0.439002 0.59723,1.1635 0.80475,1.610474 0.20706,0.446518 0.54324,1.22827 0.74654,1.737228 0.20331,0.508492 0.49817,1.305285 0.65498,1.770077 0.15729,0.464826 0.39205,1.224048 0.52211,1.687489 0.13006,0.462951 0.33101,1.265849 0.44699,1.78418 0.11597,0.517883 0.27467,1.330112 0.35214,1.804362 0.0779,0.474216 0.18311,1.234857 0.23429,1.690276 0.0507,0.455435 0.11738,1.102445 0.1479,1.438119 0.0367,0.402378 0.0666,2.528827 0.0873,6.24463 l 0.0315,5.634252 0.0826,0.281713 c 0.0455,0.154942 0.17326,0.471868 0.28359,0.704281 0.10987,0.232413 0.29861,0.55216 0.41834,0.710387 0.1202,0.158227 0.35919,0.419749 0.53103,0.580332 0.17232,0.161047 0.42868,0.366699 0.56953,0.45731 0.14132,0.09015 0.38642,0.224432 0.54465,0.298618 0.15775,0.07371 0.45637,0.177945 0.66296,0.231476 0.26341,0.06808 0.52304,0.09673 0.86861,0.09673 0.34463,0 0.60616,-0.02911 0.86862,-0.09625 0.20659,-0.05352 0.53243,-0.170902 0.72353,-0.261522 0.19156,-0.09062 0.47938,-0.258709 0.63995,-0.373269 0.16059,-0.115033 0.44793,-0.376554 0.63809,-0.581733 0.19015,-0.205179 0.41646,-0.489712 0.50239,-0.631979 0.0859,-0.142731 0.22724,-0.424443 0.31364,-0.626337 0.0869,-0.201894 0.19062,-0.530086 0.231,-0.729168 0.0643,-0.31599 0.0737,-1.025937 0.0732,-5.5873 -4.6e-4,-2.873959 -0.0216,-5.595323 -0.0469,-6.046941 -0.0253,-0.452151 -0.0794,-1.191621 -0.11973,-1.643324 -0.0409,-0.45215 -0.12582,-1.21231 -0.18921,-1.690276 -0.0634,-0.477974 -0.17936,-1.238572 -0.25729,-1.690275 -0.0784,-0.452151 -0.21457,-1.152691 -0.30285,-1.557442 -0.0883,-0.404726 -0.23617,-1.038604 -0.32866,-1.408563 -0.0925,-0.369984 -0.27186,-1.032017 -0.39863,-1.470969 -0.12677,-0.439002 -0.37655,-1.231564 -0.55591,-1.760704 -0.17889,-0.529621 -0.46248,-1.311365 -0.62963,-1.737228 -0.16762,-0.425853 -0.43618,-1.081334 -0.59676,-1.455515 -0.16104,-0.374679 -0.55262,-1.209016 -0.87097,-1.854608 -0.31834,-0.645591 -0.75687,-1.490729 -0.97477,-1.878084 -0.21739,-0.387355 -0.5606,-0.978985 -0.76156,-1.314659 -0.20142,-0.335707 -0.56671,-0.917001 -0.81086,-1.291183 -0.24462,-0.374679 -0.69348,-1.030581 -0.99773,-1.458301 -0.30425,-0.427737 -0.79021,-1.082686 -1.08041,-1.455516 -0.29016,-0.372796 -0.7301,-0.921224 -0.97805,-1.217968 -0.2479,-0.297208 -0.70475,-0.824946 -1.01513,-1.172873 -0.31035,-0.347919 -0.955,-1.032018 -1.43297,-1.519863 -0.47797,-0.488302 -1.19584,-1.186977 -1.59637,-1.552713 -0.40003,-0.366227 -0.96015,-0.865827 -1.24423,-1.110384 -0.28406,-0.244623 -0.78034,-0.657329 -1.10338,-0.917423 -0.32255,-0.259647 -0.97754,-0.763909 -1.45551,-1.120264 -0.47797,-0.356363 -1.33341,-0.95686 -1.90156,-1.335348 -0.56812,-0.377965 -1.4236,-0.922153 -1.90156,-1.20851 -0.47797,-0.286408 -1.27007,-0.738558 -1.7607,-1.004741 -0.49065,-0.265753 -1.33578,-0.699587 -1.87809,-0.963447 -0.5423,-0.26387 -1.32454,-0.627748 -1.73866,-0.808987 -0.41364,-0.180765 -1.15312,-0.487364 -1.64333,-0.680805 -0.48971,-0.193914 -1.25031,-0.479385 -1.68976,-0.634327 -0.43948,-0.154942 -1.17896,-0.39862 -1.64333,-0.541359 -0.46436,-0.142731 -1.26678,-0.374679 -1.78367,-0.516 -0.51647,-0.140857 -1.31939,-0.342278 -1.78418,-0.446983 -0.46435,-0.104704 -1.11368,-0.244151 -1.44285,-0.309411 -0.32914,-0.06526 -0.97383,-0.181702 -1.43204,-0.258236 -0.45873,-0.077 -1.15083,-0.181703 -1.53819,-0.232886 -0.38735,-0.05071 -1.0104,-0.124423 -1.38508,-0.163859 -0.37421,-0.03897 -0.95551,-0.09343 -1.29119,-0.121138 -0.3357,-0.02723 -0.97991,-0.07043 -1.43204,-0.09531 -0.45167,-0.02489 -1.63487,-0.04226 -2.629309,-0.03804 z M 66.333015,55.568972 c -0.142267,-0.0108 -0.399566,-0.0042 -0.572343,0.01456 -0.172786,0.01878 -0.435244,0.06949 -0.583616,0.112685 -0.148373,0.04319 -0.429612,0.159164 -0.624936,0.257299 -0.195789,0.0986 -0.485017,0.27467 -0.643717,0.391577 -0.158227,0.116907 -0.413179,0.335707 -0.566246,0.486427 -0.153067,0.150247 -0.542769,0.592069 -0.866249,0.981772 -0.323032,0.389229 -0.831052,1.033453 -1.12778,1.432039 -0.297208,0.398156 -0.720714,0.987852 -0.941406,1.310943 -0.220675,0.32256 -0.554972,0.829642 -0.742781,1.126851 -0.187808,0.296735 -0.572342,0.941406 -0.854511,1.432039 -0.282186,0.490649 -0.753108,1.378078 -1.045613,1.971988 -0.292978,0.593944 -0.673763,1.407128 -0.846067,1.807656 -0.172785,0.40003 -0.440412,1.054987 -0.594881,1.455515 -0.154469,0.40003 -0.416937,1.129215 -0.583617,1.619848 -0.16668,0.490649 -0.406608,1.25124 -0.533379,1.690275 -0.126771,0.439003 -0.306126,1.10101 -0.39862,1.470969 -0.09249,0.369985 -0.240866,1.003813 -0.329138,1.408563 -0.08827,0.404726 -0.235233,1.168652 -0.32679,1.698298 -0.09108,0.529149 -0.217854,1.374278 -0.281239,1.878084 -0.06339,0.503325 -0.147899,1.274716 -0.186871,1.713752 -0.03944,0.439002 -0.09438,1.273365 -0.122549,1.854608 -0.03521,0.736675 -0.04648,8.23773 -0.03662,24.76723 l 0.01456,23.71081 0.08358,0.28172 c 0.04601,0.15494 0.155879,0.43478 0.244151,0.62164 0.08827,0.18734 0.228655,0.44089 0.312704,0.56343 0.08358,0.12302 0.237581,0.32631 0.342751,0.45215 0.104704,0.12536 0.338992,0.34791 0.520695,0.49393 0.181239,0.14602 0.498165,0.35261 0.704282,0.45967 0.205651,0.10658 0.510367,0.23851 0.677047,0.29297 0.16668,0.0545 0.479849,0.11879 0.695829,0.14368 0.256362,0.0291 0.526801,0.0277 0.777057,-0.003 0.211284,-0.0258 0.559667,-0.10799 0.77471,-0.18171 0.215042,-0.0737 0.561077,-0.23616 0.769541,-0.36106 0.208464,-0.12536 0.540887,-0.38641 0.739023,-0.57986 0.198136,-0.19391 0.450267,-0.48548 0.560605,-0.64841 0.109864,-0.16292 0.271849,-0.44792 0.359656,-0.63385 0.08733,-0.18546 0.196726,-0.46435 0.242741,-0.6193 l 0.08358,-0.28171 0.02676,-24.11024 c 0.01972,-17.996335 0.04085,-24.258867 0.08217,-24.697143 0.03052,-0.323032 0.0878,-0.893525 0.127708,-1.267707 0.03944,-0.374679 0.125834,-1.029653 0.191567,-1.455515 0.06573,-0.425854 0.18264,-1.091636 0.259647,-1.478991 0.07747,-0.387355 0.233823,-1.078463 0.348382,-1.535824 0.11456,-0.457783 0.312705,-1.178953 0.440413,-1.602958 0.128181,-0.423979 0.363406,-1.137659 0.523516,-1.586069 0.159637,-0.448392 0.422096,-1.132508 0.583616,-1.519863 0.161048,-0.387355 0.454963,-1.053129 0.653107,-1.478991 0.198136,-0.425854 0.552625,-1.13386 0.787385,-1.572896 0.234761,-0.439002 0.61742,-1.115112 0.849867,-1.502467 0.232413,-0.387355 0.67329,-1.077534 0.979407,-1.533966 0.305662,-0.456372 0.783163,-1.132508 1.060645,-1.502467 0.277955,-0.369984 0.655455,-0.862956 0.83997,-1.095352 0.184523,-0.232413 0.410358,-0.56014 0.501914,-0.727758 0.09156,-0.16809 0.235698,-0.506145 0.320685,-0.751233 l 0.154005,-0.446045 0.0014,-0.704282 c 9.29e-4,-0.602861 -0.01456,-0.753108 -0.105642,-1.042826 -0.06714,-0.213159 -0.213632,-0.49863 -0.396745,-0.772362 -0.159638,-0.238983 -0.49206,-0.638076 -0.738559,-0.887361 -0.246498,-0.249319 -0.583143,-0.543234 -0.747948,-0.653572 -0.164806,-0.110337 -0.453561,-0.271849 -0.642307,-0.35871 -0.188746,-0.08733 -0.476564,-0.188282 -0.639486,-0.224433 -0.163395,-0.03615 -0.412705,-0.07419 -0.554972,-0.08545 z m 33.523463,0.862956 c -0.60662,0.0033 -1.409492,0.02348 -1.78418,0.04413 -0.374207,0.02113 -1.018844,0.07184 -1.432039,0.112685 -0.413179,0.04132 -1.119335,0.128181 -1.56918,0.192976 -0.450267,0.06526 -1.14754,0.181703 -1.549419,0.259647 -0.402378,0.07747 -1.079899,0.224433 -1.505761,0.32679 -0.425389,0.102357 -1.16958,0.301431 -1.652697,0.44276 -0.483607,0.141329 -1.212732,0.375144 -1.620777,0.519758 -0.407546,0.144614 -1.068667,0.396272 -1.469111,0.559203 -0.40003,0.162922 -0.969527,0.406136 -1.265849,0.539949 -0.295798,0.133814 -0.832462,0.391113 -1.192549,0.571406 -0.360594,0.180765 -0.916495,0.474689 -1.236208,0.654044 -0.319275,0.178891 -0.828232,0.476564 -1.131073,0.661087 -0.302841,0.184988 -0.831052,0.523043 -1.173803,0.752171 -0.34275,0.228655 -0.966234,0.673763 -1.385087,0.988781 -0.418811,0.315052 -1.004319,0.775183 -1.301485,1.022137 -0.296736,0.247436 -0.803818,0.693954 -1.126851,0.992581 -0.322559,0.298146 -0.915566,0.877988 -1.317023,1.288396 -0.40144,0.409894 -0.99959,1.061574 -1.32969,1.448 -0.330075,0.386417 -0.849867,1.033875 -1.155478,1.438626 -0.305661,0.404725 -0.798186,1.102867 -1.09493,1.551277 -0.296271,0.448392 -0.711797,1.11089 -0.923588,1.472404 -0.211285,0.361532 -0.610377,1.111819 -0.886939,1.6668 -0.276544,0.554972 -0.612725,1.269142 -0.747476,1.586491 -0.134286,0.316927 -0.379839,0.940478 -0.545581,1.385087 -0.16527,0.444171 -0.396746,1.124993 -0.513653,1.512348 -0.11738,0.387355 -0.289693,1.000096 -0.383132,1.361611 -0.09343,0.361531 -0.240866,1.016479 -0.328192,1.455515 -0.08686,0.439002 -0.200957,1.094001 -0.253542,1.455515 -0.05212,0.361531 -0.128181,0.974256 -0.168554,1.361611 -0.04038,0.387355 -0.09531,1.317023 -0.122076,2.065892 -0.02723,0.754519 -0.04178,3.110071 -0.03287,5.282112 l 0.01596,3.920501 0.105169,0.375616 c 0.05775,0.20659 0.178891,0.532434 0.269502,0.723536 0.09062,0.191566 0.256826,0.476563 0.369047,0.634326 0.112212,0.157289 0.361058,0.43478 0.552625,0.616483 0.191566,0.182176 0.51225,0.433369 0.712734,0.558257 0.200484,0.124896 0.537602,0.286881 0.749359,0.359656 0.211285,0.07278 0.54277,0.156817 0.736675,0.186398 0.200957,0.03099 0.498165,0.04132 0.692544,0.02348 0.187335,-0.01691 0.499102,-0.07137 0.692543,-0.120665 0.193914,-0.04977 0.500977,-0.164805 0.683153,-0.256362 0.182176,-0.09156 0.451678,-0.248373 0.59864,-0.348383 0.147426,-0.100474 0.411768,-0.327254 0.588311,-0.504735 0.176543,-0.17748 0.414116,-0.462951 0.528684,-0.63479 0.11456,-0.171848 0.261057,-0.43196 0.32538,-0.577984 0.0648,-0.146025 0.163859,-0.417401 0.220675,-0.603335 l 0.102822,-0.337582 0.02864,-5.070827 c 0.02489,-4.406488 0.03944,-5.153922 0.1094,-5.70468 0.0446,-0.348856 0.135224,-0.95078 0.201421,-1.338135 0.06621,-0.387355 0.213632,-1.079392 0.328192,-1.537682 0.11456,-0.458255 0.33618,-1.207158 0.492524,-1.663506 0.155879,-0.456373 0.410358,-1.127357 0.5653,-1.490729 0.154469,-0.363406 0.455908,-0.998661 0.669067,-1.411856 0.21316,-0.413179 0.573289,-1.054565 0.800534,-1.425031 0.227244,-0.370921 0.604272,-0.941406 0.838095,-1.267706 0.23335,-0.32679 0.612252,-0.826357 0.842317,-1.110384 0.230065,-0.28406 0.661552,-0.783627 0.959225,-1.110383 0.297208,-0.326317 0.78692,-0.82401 1.08792,-1.105739 0.300967,-0.281713 0.769078,-0.700059 1.039956,-0.929162 0.271385,-0.229592 0.767667,-0.621642 1.103374,-0.871401 0.335708,-0.250256 0.885081,-0.63479 1.220755,-0.85544 0.335707,-0.220202 0.895805,-0.564362 1.244231,-0.764846 0.348855,-0.200484 1.014199,-0.548867 1.478991,-0.773773 0.464826,-0.224897 1.162064,-0.536664 1.549419,-0.692543 0.387355,-0.155879 1.084627,-0.410358 1.549419,-0.5653 0.464826,-0.154469 1.228271,-0.377027 1.696356,-0.494407 0.468111,-0.117381 1.18647,-0.277018 1.596372,-0.355426 0.409893,-0.07841 1.072889,-0.184523 1.472911,-0.235698 0.400503,-0.05165 1.002461,-0.119728 1.338135,-0.152121 0.353078,-0.0338 1.28316,-0.05775 2.206748,-0.05728 1.16907,4.69e-4 1.8161,0.023 2.41803,0.0831 0.45215,0.04508 1.09772,0.122549 1.43483,0.171848 0.33711,0.0493 0.89682,0.144615 1.24423,0.211758 0.34697,0.06714 0.9268,0.195788 1.28839,0.285935 0.36154,0.08968 0.94276,0.248846 1.29119,0.353078 0.34885,0.104232 0.993,0.323969 1.43204,0.487364 0.439,0.163395 1.11511,0.437592 1.50246,0.608967 0.38736,0.171848 0.9865,0.459658 1.33155,0.640897 0.34463,0.180765 0.86254,0.46811 1.15033,0.638548 0.28781,0.170438 0.77658,0.478439 1.08648,0.685028 0.30989,0.206116 0.79678,0.547929 1.08227,0.759214 0.28499,0.211284 0.78175,0.603334 1.10337,0.870978 0.32162,0.2681 0.97611,0.878916 1.45459,1.357389 0.47891,0.478911 1.07196,1.113677 1.31837,1.410421 0.2465,0.296735 0.60709,0.751233 0.80194,1.00947 0.19438,0.258236 0.55498,0.775647 0.801,1.150326 0.24603,0.374207 0.56765,0.890655 0.71461,1.147033 0.14744,0.256362 0.41224,0.754992 0.58925,1.108104 0.17654,0.353078 0.44089,0.924939 0.5869,1.271 0.14649,0.346035 0.40003,1.030582 0.5639,1.521214 0.16386,0.49065 0.37233,1.187905 0.46294,1.54942 0.0906,0.361531 0.21693,0.942335 0.28031,1.291183 0.0639,0.348855 0.14837,0.897747 0.18875,1.220754 0.0399,0.322559 0.0873,0.671415 0.10517,0.77471 0.0174,0.103295 0.0446,13.287614 0.0601,29.297771 l 0.0282,29.11031 0.15166,0.44604 c 0.0831,0.24509 0.24837,0.61179 0.36763,0.81415 0.11879,0.20284 0.37797,0.53807 0.5761,0.7456 0.19814,0.20753 0.48877,0.46906 0.64606,0.58127 0.15729,0.11221 0.4423,0.27843 0.63385,0.36905 0.19111,0.0906 0.51507,0.20752 0.71932,0.25917 0.25213,0.0644 0.52351,0.0948 0.84513,0.0944 0.30566,0 0.60709,-0.0324 0.84936,-0.0906 0.20659,-0.0497 0.50098,-0.14603 0.65405,-0.21411 0.15259,-0.0681 0.41694,-0.21363 0.5869,-0.32349 0.16949,-0.11034 0.4329,-0.31458 0.58502,-0.45404 0.15213,-0.13897 0.38078,-0.3911 0.50803,-0.55919 0.1277,-0.16857 0.31504,-0.47516 0.41646,-0.68222 0.10141,-0.20659 0.22678,-0.54277 0.27843,-0.74701 l 0.0934,-0.37139 v -28.87216 c -4.7e-4,-19.284987 -0.0165,-29.098483 -0.0484,-29.536759 -0.0268,-0.361531 -0.0902,-1.006177 -0.14132,-1.432039 -0.0512,-0.425854 -0.14602,-1.085556 -0.21082,-1.465818 -0.0643,-0.379839 -0.19016,-1.013692 -0.27889,-1.408563 -0.0892,-0.394397 -0.23758,-0.992074 -0.33008,-1.327832 -0.092,-0.335708 -0.23288,-0.821662 -0.31176,-1.079898 -0.0794,-0.258237 -0.26857,-0.811334 -0.42116,-1.2292 -0.1526,-0.417401 -0.41553,-1.083191 -0.58502,-1.478991 -0.16903,-0.395335 -0.51413,-1.131579 -0.76626,-1.634879 -0.2526,-0.503798 -0.64465,-1.232493 -0.8714,-1.619847 -0.22678,-0.387355 -0.63291,-1.038098 -0.90239,-1.446142 -0.26951,-0.40801 -0.73997,-1.073818 -1.04561,-1.478991 -0.30566,-0.405663 -0.74984,-0.969527 -0.98693,-1.253604 -0.23757,-0.284061 -0.72493,-0.835748 -1.08361,-1.225906 -0.35872,-0.390176 -0.95357,-0.992581 -1.32268,-1.339064 -0.36904,-0.346508 -0.83997,-0.778468 -1.04654,-0.960154 -0.20659,-0.181703 -0.59723,-0.510367 -0.86862,-0.730105 -0.27091,-0.219738 -0.70428,-0.558257 -0.96252,-0.752171 -0.25823,-0.193441 -0.69113,-0.50661 -0.96251,-0.695828 -0.27092,-0.189219 -0.778,-0.524454 -1.12685,-0.745129 -0.34839,-0.220674 -0.88737,-0.547929 -1.19728,-0.727284 -0.30989,-0.179356 -0.90147,-0.50145 -1.31466,-0.716493 -0.41318,-0.214569 -1.03624,-0.520695 -1.38509,-0.679395 -0.34885,-0.1587 -1.04561,-0.454025 -1.54942,-0.655455 -0.50332,-0.201894 -1.29912,-0.494871 -1.76771,-0.651224 -0.46858,-0.156352 -1.12212,-0.360121 -1.45222,-0.453087 -0.33008,-0.09297 -0.9409,-0.251194 -1.35739,-0.351668 -0.41647,-0.10001 -1.14703,-0.255889 -1.62314,-0.346036 -0.47609,-0.09015 -1.2672,-0.216917 -1.75792,-0.282185 -0.49065,-0.0648 -1.13479,-0.139919 -1.43204,-0.167153 -0.29673,-0.02676 -0.90948,-0.06949 -1.36161,-0.09484 -0.45168,-0.02535 -1.31795,-0.04319 -1.925034,-0.03991 z M 100.326,72.369464 c -0.554973,-0.01033 -1.104305,-0.0108 -1.220756,-0.0014 -0.11597,0.0099 -0.496282,0.04085 -0.845138,0.06949 -0.348383,0.02817 -1.000519,0.113158 -1.449435,0.187808 -0.448392,0.07512 -1.138082,0.220675 -1.53253,0.323497 -0.39487,0.102821 -0.972398,0.271849 -1.284174,0.376089 -0.311758,0.104232 -0.7841,0.275608 -1.049413,0.38125 -0.265752,0.105169 -0.779878,0.334297 -1.142811,0.508957 -0.362941,0.17466 -0.891161,0.450267 -1.173802,0.611788 -0.28265,0.161512 -0.777995,0.469994 -1.10101,0.685028 -0.322559,0.215042 -0.814619,0.569057 -1.093072,0.78692 -0.278428,0.217855 -0.762499,0.625873 -1.075676,0.907122 -0.313169,0.281239 -0.791616,0.754518 -1.063431,1.051271 -0.27185,0.296735 -0.65733,0.74419 -0.85637,0.994016 -0.199073,0.249784 -0.499102,0.651224 -0.666247,0.89209 -0.167152,0.240866 -0.456845,0.691606 -0.643716,1.001448 -0.186398,0.309884 -0.483607,0.85924 -0.659204,1.220755 -0.176071,0.361531 -0.403789,0.868613 -0.506146,1.12685 -0.102357,0.258237 -0.271385,0.73339 -0.375617,1.056422 -0.104705,0.32256 -0.243213,0.798186 -0.308009,1.056423 -0.0648,0.258236 -0.16011,0.691133 -0.211757,0.962518 -0.05165,0.270912 -0.132403,0.799123 -0.179356,1.173802 l -0.08613,0.680637 v 65.403595 l 0.103295,0.38736 c 0.05682,0.21316 0.192031,0.56624 0.300021,0.78457 0.108462,0.21833 0.330074,0.5653 0.493469,0.77142 0.162923,0.20612 0.449803,0.50192 0.638076,0.65686 0.187809,0.15541 0.521641,0.37703 0.741371,0.493 0.220201,0.11597 0.569057,0.25965 0.775647,0.3188 0.301903,0.0869 0.486427,0.10753 0.939042,0.10564 0.381722,-0.002 0.662024,-0.0286 0.868613,-0.084 0.168091,-0.0451 0.495345,-0.17466 0.727758,-0.28735 0.232413,-0.11315 0.570468,-0.3235 0.751234,-0.46717 0.180765,-0.14415 0.459657,-0.41412 0.619295,-0.60005 0.16011,-0.18593 0.379374,-0.493 0.487364,-0.68174 0.10799,-0.18876 0.257764,-0.52071 0.332423,-0.73669 0.08264,-0.24133 0.152594,-0.57281 0.180292,-0.85594 0.02817,-0.28922 0.04554,-12.50058 0.04601,-32.6182 0.0014,-28.868785 0.0089,-32.206944 0.07465,-32.655354 0.04038,-0.274669 0.104704,-0.625873 0.143203,-0.780815 0.03803,-0.154942 0.134751,-0.482669 0.214105,-0.727757 0.07935,-0.245562 0.265753,-0.702407 0.414116,-1.015551 0.148837,-0.313169 0.408484,-0.777994 0.577038,-1.032946 0.168555,-0.254952 0.475154,-0.66531 0.681743,-0.91185 0.206589,-0.246499 0.50943,-0.572343 0.673763,-0.724473 0.163859,-0.152121 0.454962,-0.400968 0.647001,-0.553562 0.192031,-0.152594 0.503325,-0.381722 0.692071,-0.50943 0.188746,-0.127244 0.56014,-0.346035 0.824947,-0.485954 0.264806,-0.140384 0.686911,-0.33993 0.937184,-0.444171 0.250721,-0.104232 0.701461,-0.263869 1.002461,-0.354961 0.300966,-0.09156 0.82542,-0.21739 1.16578,-0.280302 0.340403,-0.06291 0.945629,-0.138509 1.345144,-0.168091 0.399566,-0.02958 0.969524,-0.04038 1.266274,-0.02395 0.29721,0.01643 0.78316,0.06198 1.0799,0.100474 0.29721,0.0385 0.76203,0.122075 1.03294,0.186398 0.27139,0.06386 0.69396,0.180765 0.93905,0.259647 0.24556,0.07935 0.66813,0.241803 0.93904,0.361531 0.27138,0.119728 0.66202,0.310821 0.8681,0.424916 0.20659,0.114096 0.54794,0.322095 0.75875,0.462479 0.21082,0.139918 0.5808,0.419748 0.82167,0.621178 0.24133,0.201421 0.57798,0.513652 0.74747,0.69348 0.1695,0.179829 0.42727,0.476091 0.57235,0.657803 0.14508,0.181703 0.38501,0.517883 0.53337,0.747475 0.1479,0.229128 0.39018,0.670478 0.53808,0.980337 0.14742,0.309884 0.34275,0.795838 0.43383,1.079898 0.0911,0.28406 0.19955,0.695829 0.24181,0.915566 0.0418,0.219738 0.0901,0.44135 0.10752,0.492997 0.0174,0.05165 0.0427,4.329896 0.0568,9.507801 l 0.0253,9.414067 0.13146,0.42257 c 0.0728,0.23241 0.21504,0.57751 0.31693,0.76625 0.10141,0.18922 0.27983,0.46765 0.3958,0.61836 0.11598,0.15072 0.34979,0.39957 0.51977,0.55263 0.16996,0.15353 0.47139,0.37421 0.66953,0.49018 0.19861,0.11597 0.47703,0.25589 0.61883,0.31129 0.14226,0.0549 0.39581,0.13193 0.56342,0.17091 0.16762,0.0385 0.51225,0.0709 0.76532,0.0713 0.25402,0 0.61225,-0.0333 0.79819,-0.0752 0.18593,-0.0413 0.51412,-0.15682 0.72963,-0.25683 0.21552,-0.10001 0.52211,-0.27514 0.68081,-0.38829 0.15917,-0.11363 0.45121,-0.37609 0.64934,-0.58362 0.19814,-0.20753 0.45685,-0.54182 0.5747,-0.74325 0.11785,-0.20142 0.26668,-0.52587 0.33054,-0.72072 0.0638,-0.19485 0.13898,-0.49158 0.16716,-0.6592 0.0356,-0.21411 0.046,-3.08009 0.0352,-9.601536 l -0.015,-9.296685 -0.0831,-0.633854 c -0.0455,-0.348855 -0.14601,-0.95078 -0.22302,-1.338134 -0.0774,-0.387355 -0.22302,-0.992581 -0.32397,-1.344722 -0.10095,-0.352141 -0.26105,-0.848431 -0.3559,-1.103375 -0.0948,-0.254478 -0.29861,-0.747948 -0.45261,-1.096787 -0.15401,-0.348856 -0.43525,-0.912779 -0.62588,-1.253604 -0.19015,-0.341341 -0.49815,-0.848432 -0.68502,-1.126851 -0.1864,-0.278892 -0.46577,-0.67611 -0.62071,-0.882716 -0.15494,-0.20659 -0.39909,-0.513188 -0.54229,-0.680806 -0.14368,-0.167617 -0.44934,-0.511305 -0.67941,-0.762971 -0.23006,-0.251667 -0.66859,-0.682681 -0.97425,-0.957367 -0.30566,-0.27467 -0.78316,-0.676583 -1.06158,-0.893526 -0.27843,-0.216452 -0.77142,-0.570941 -1.09586,-0.787385 -0.32397,-0.216452 -0.86295,-0.546992 -1.19728,-0.734327 -0.33382,-0.187809 -0.8071,-0.43478 -1.05127,-0.548867 -0.24415,-0.11456 -0.67752,-0.304251 -0.96251,-0.422096 -0.28548,-0.11738 -0.82495,-0.316454 -1.19965,-0.442287 -0.3742,-0.126298 -1.01884,-0.312232 -1.43204,-0.413652 -0.41318,-0.10142 -1.01225,-0.228655 -1.33112,-0.282185 -0.3188,-0.054 -0.86811,-0.128646 -1.22076,-0.166207 -0.35261,-0.03804 -1.09493,-0.077 -1.65033,-0.08734 z m -0.352142,14.203011 c -0.154942,0.0024 -0.429612,0.03146 -0.610377,0.0648 -0.180766,0.0338 -0.470459,0.113622 -0.643717,0.177008 -0.172785,0.06386 -0.468584,0.206589 -0.657329,0.316926 -0.222086,0.130993 -0.50661,0.367637 -0.811799,0.676111 -0.284997,0.288282 -0.545117,0.603807 -0.661552,0.803353 -0.105169,0.180293 -0.247908,0.468584 -0.316453,0.640424 -0.06855,0.172312 -0.156817,0.463888 -0.195325,0.648876 -0.06245,0.296271 -0.0709,2.621802 -0.0709,19.604187 0,16.9568 0.0085,19.30779 0.07043,19.60335 0.03897,0.18405 0.137098,0.49534 0.2188,0.69066 0.08123,0.19579 0.248373,0.50614 0.371394,0.68973 0.123013,0.18405 0.354962,0.46717 0.516,0.62962 0.160575,0.16199 0.423042,0.38829 0.583144,0.50239 0.16011,0.11457 0.447455,0.28219 0.639021,0.3728 0.191094,0.0906 0.515063,0.20753 0.719305,0.25918 0.258236,0.0662 0.523989,0.0948 0.872836,0.0948 0.343684,0 0.618354,-0.0291 0.872834,-0.093 0.20424,-0.0512 0.56625,-0.19062 0.80383,-0.30988 0.23804,-0.11926 0.57562,-0.33665 0.75028,-0.48313 0.17467,-0.14697 0.44089,-0.41412 0.59255,-0.59442 0.15729,-0.18687 0.37373,-0.52821 0.50613,-0.79678 0.12677,-0.25823 0.26763,-0.60709 0.31271,-0.77471 l 0.0822,-0.30519 V 89.966209 l -0.0836,-0.305189 c -0.0455,-0.16809 -0.15494,-0.45731 -0.24274,-0.642771 -0.0878,-0.185934 -0.24978,-0.470458 -0.35965,-0.632443 -0.11034,-0.162458 -0.33946,-0.434307 -0.5099,-0.604272 -0.16996,-0.170438 -0.44323,-0.400503 -0.60709,-0.512251 -0.16433,-0.111274 -0.45826,-0.27608 -0.65311,-0.366226 -0.19531,-0.09015 -0.54652,-0.203304 -0.78081,-0.251667 -0.23382,-0.04836 -0.55216,-0.08639 -0.707095,-0.08451 z m 42.656322,14.713915 c -0.28406,-0.0136 -0.57938,0.004 -0.81368,0.0488 -0.20236,0.038 -0.52539,0.13522 -0.7179,0.21504 -0.1925,0.0803 -0.51318,0.25213 -0.71179,0.38218 -0.19861,0.1296 -0.50145,0.37562 -0.67235,0.547 -0.17138,0.1709 -0.41741,0.47374 -0.547,0.67235 -0.13005,0.19861 -0.30002,0.51554 -0.37843,0.70382 -0.0785,0.18827 -0.17607,0.5113 -0.21786,0.71789 l -0.0752,0.37562 0.0127,12.58333 0.0132,12.58333 0.10658,0.34369 c 0.0587,0.18922 0.18312,0.49534 0.27608,0.68081 0.0934,0.18546 0.23429,0.43243 0.31317,0.5484 0.0789,0.11597 0.28219,0.35636 0.45168,0.53338 0.1695,0.17747 0.43807,0.41552 0.59724,0.52915 0.15869,0.11409 0.46529,0.28875 0.6808,0.38876 0.21551,0.1 0.53948,0.21879 0.72025,0.26433 0.20941,0.0521 0.50755,0.0822 0.82166,0.0822 0.3141,0 0.61225,-0.0301 0.82166,-0.0822 0.18076,-0.0455 0.50473,-0.16433 0.72024,-0.26433 0.21552,-0.10001 0.52212,-0.27467 0.68081,-0.38876 0.15917,-0.11363 0.42773,-0.35168 0.59723,-0.52915 0.1695,-0.17702 0.3728,-0.41741 0.45168,-0.53338 0.0789,-0.11597 0.2202,-0.36341 0.31364,-0.54982 0.0934,-0.18592 0.21786,-0.50285 0.27607,-0.70428 l 0.10612,-0.36575 v -25.44872 l -0.15166,-0.44604 c -0.0831,-0.24556 -0.24837,-0.61179 -0.36763,-0.81415 -0.11879,-0.20284 -0.37797,-0.53807 -0.5761,-0.7456 -0.19814,-0.20752 -0.4869,-0.46717 -0.64184,-0.57704 -0.15494,-0.10987 -0.43337,-0.27561 -0.61883,-0.36858 -0.18546,-0.093 -0.49158,-0.21222 -0.6808,-0.26528 -0.18922,-0.053 -0.54418,-0.1061 -0.78974,-0.11738 z m -71.024343,2.65608 c -0.289228,0.002 -0.582206,0.0343 -0.788795,0.0887 -0.180766,0.0479 -0.423979,0.12395 -0.539949,0.16903 -0.11597,0.0451 -0.37327,0.177 -0.571879,0.29345 -0.198136,0.11597 -0.500977,0.33805 -0.672825,0.49299 -0.171848,0.15542 -0.417874,0.42164 -0.546992,0.5916 -0.128645,0.17044 -0.3174,0.47844 -0.418811,0.6855 -0.101885,0.20659 -0.232413,0.55497 -0.290166,0.77471 l -0.105169,0.39909 v 35.87107 l 0.08733,0.32867 c 0.04789,0.18076 0.169028,0.50521 0.269502,0.72118 0.100009,0.21598 0.286408,0.53338 0.414116,0.70616 0.128181,0.17231 0.357309,0.43243 0.50943,0.57751 0.152121,0.14508 0.439475,0.37045 0.638549,0.50004 0.199073,0.13006 0.524926,0.29909 0.723999,0.37562 0.199074,0.0765 0.494872,0.16527 0.656857,0.19672 0.18264,0.0357 0.504735,0.0488 0.845138,0.0347 0.45074,-0.0187 0.624463,-0.0488 0.959731,-0.1648 0.22537,-0.078 0.570941,-0.23383 0.76814,-0.34651 0.197672,-0.11315 0.535727,-0.37092 0.752171,-0.57328 0.230065,-0.21552 0.507555,-0.53901 0.668594,-0.77941 0.156353,-0.23382 0.337118,-0.58268 0.419284,-0.80992 0.07935,-0.21926 0.168091,-0.56625 0.196726,-0.77049 0.0385,-0.27091 0.0493,-5.19479 0.03897,-18.16691 l -0.01361,-17.79451 -0.08404,-0.2789 c -0.04602,-0.15306 -0.133341,-0.40238 -0.194379,-0.55309 -0.06104,-0.15072 -0.181703,-0.39205 -0.268564,-0.53619 -0.08639,-0.14415 -0.285471,-0.41318 -0.442287,-0.59771 -0.15729,-0.18452 -0.442287,-0.4559 -0.633854,-0.60287 -0.19203,-0.14649 -0.549812,-0.36105 -0.7949,-0.47609 -0.245089,-0.11503 -0.598167,-0.24274 -0.7841,-0.28406 -0.190629,-0.0422 -0.538539,-0.0742 -0.798186,-0.0723 z m 42.571873,11.99221 c -0.36481,-0.0145 -0.63103,0 -0.82166,0.0437 -0.15494,0.0361 -0.42633,0.12349 -0.60286,0.19438 -0.17654,0.0709 -0.48314,0.23382 -0.68081,0.36248 -0.19767,0.12817 -0.52868,0.40707 -0.73527,0.61882 -0.20659,0.21223 -0.4653,0.53713 -0.57469,0.7226 -0.1094,0.18498 -0.25073,0.46341 -0.31411,0.61883 -0.0629,0.1554 -0.1479,0.43524 -0.18922,0.62211 l -0.0747,0.33993 0.0127,17.32499 0.0132,17.32499 0.1479,0.41411 c 0.0817,0.22772 0.25072,0.58549 0.37561,0.79443 0.12865,0.21458 0.39158,0.54794 0.60334,0.76438 0.20659,0.21129 0.51037,0.47422 0.67517,0.58456 0.1648,0.11033 0.4498,0.27044 0.63385,0.35542 0.18405,0.0845 0.4667,0.18828 0.62869,0.23007 0.16198,0.0422 0.45778,0.0887 0.65733,0.10424 0.19955,0.015 0.5207,0.003 0.71414,-0.0273 0.19297,-0.0301 0.49535,-0.10518 0.67142,-0.16621 0.17653,-0.0615 0.48172,-0.2033 0.67846,-0.31505 0.19672,-0.11174 0.53525,-0.37092 0.75264,-0.5761 0.21692,-0.20471 0.48596,-0.50051 0.59769,-0.65733 0.11175,-0.15635 0.27749,-0.43337 0.36905,-0.61554 0.0911,-0.18218 0.21457,-0.48878 0.2742,-0.68081 l 0.10846,-0.34979 0.0122,-17.13752 c 0.0103,-14.45973 0.002,-17.19663 -0.053,-17.5133 -0.0361,-0.20659 -0.131,-0.54512 -0.21128,-0.75217 -0.0798,-0.20753 -0.25073,-0.5376 -0.37985,-0.73339 -0.12864,-0.19626 -0.38406,-0.50662 -0.56765,-0.6902 -0.18358,-0.18358 -0.47469,-0.42774 -0.647,-0.54183 -0.17231,-0.11456 -0.43994,-0.26434 -0.59488,-0.33289 -0.15494,-0.0686 -0.42961,-0.16621 -0.61038,-0.21739 -0.20283,-0.0568 -0.53525,-0.10047 -0.86861,-0.11409 z m -14.203007,22.01851 c -0.466237,-0.0178 -0.623991,-0.005 -0.914638,0.0737 -0.192976,0.0521 -0.483133,0.15682 -0.644654,0.23242 -0.161511,0.0756 -0.394397,0.20611 -0.51741,0.29016 -0.123013,0.0836 -0.32538,0.23711 -0.44933,0.3404 -0.12395,0.10376 -0.338055,0.32679 -0.476091,0.49629 -0.138036,0.16902 -0.319274,0.4235 -0.402851,0.56577 -0.08358,0.14179 -0.212222,0.40942 -0.286408,0.59394 -0.07371,0.18453 -0.166207,0.48689 -0.205179,0.67189 -0.06151,0.29204 -0.0709,1.3264 -0.07043,7.78746 v 7.45036 l 0.09297,0.38641 c 0.05071,0.21223 0.155415,0.52539 0.232886,0.69536 0.077,0.17044 0.235233,0.45262 0.351668,0.62728 0.11597,0.17514 0.380785,0.48032 0.588311,0.67846 0.208,0.19861 0.49722,0.43713 0.643717,0.53103 0.146024,0.0934 0.40003,0.231 0.564363,0.30519 0.163859,0.0747 0.471868,0.17701 0.68409,0.22772 0.244624,0.0587 0.550277,0.093 0.832463,0.093 0.27984,0 0.58784,-0.0343 0.82683,-0.0916 0.20987,-0.0502 0.49769,-0.14273 0.63995,-0.20564 0.14227,-0.0629 0.38313,-0.19345 0.53479,-0.2897 0.15166,-0.0967 0.3897,-0.27233 0.52915,-0.39064 0.13992,-0.11832 0.37279,-0.36482 0.51788,-0.54746 0.14508,-0.18265 0.35167,-0.50099 0.45919,-0.70758 0.10752,-0.20659 0.24415,-0.53337 0.30378,-0.72634 l 0.10846,-0.35073 0.0132,-7.53582 c 0.0122,-6.76904 0.006,-7.57381 -0.062,-7.91143 -0.0413,-0.20658 -0.13899,-0.52821 -0.21646,-0.7146 -0.0774,-0.1864 -0.2263,-0.47187 -0.33054,-0.63386 -0.10423,-0.16198 -0.2864,-0.40895 -0.40519,-0.5484 -0.11832,-0.13992 -0.37139,-0.37796 -0.56249,-0.52962 -0.19062,-0.15166 -0.53995,-0.3681 -0.77659,-0.48126 -0.23617,-0.11315 -0.56671,-0.24087 -0.7348,-0.28359 -0.16761,-0.0422 -0.55873,-0.0869 -0.86861,-0.0986 z"
       id="icon" /></g></svg>