<?xml version="1.0" encoding="UTF-8" standalone="no"?>
<svg
   xmlns:dc="http://purl.org/dc/elements/1.1/"
   xmlns:cc="http://creativecommons.org/ns#"
   xmlns:rdf="http://www.w3.org/1999/02/22-rdf-syntax-ns#"
   xmlns:svg="http://www.w3.org/2000/svg"
   xmlns="http://www.w3.org/2000/svg"
   xmlns:xlink="http://www.w3.org/1999/xlink"
   id="svg16"
   xml:space="preserve"
   viewBox="0 0 1024 768"
   y="0px"
   x="0px"
   version="1.1"><metadata
     id="metadata20"><rdf:RDF><cc:Work
         rdf:about=""><dc:format>image/svg+xml</dc:format><dc:type
           rdf:resource="http://purl.org/dc/dcmitype/StillImage" /></cc:Work></rdf:RDF></metadata><defs
     id="defs4"><filter
       height="200%"
       width="200%"
       y="-50%"
       x="-50%"
       id="f1"><feGaussianBlur
         stdDeviation="5"
         in="SourceGraphic"
         id="blur1" /></filter></defs><path
     opacity="0.6"
     filter="url(#f1)"
     stroke-width="2"
     stroke="#000000"
     fill="#000000"
     transform="translate(3 5)"
     d="m511.94 242.44c-0.89 0-1.7 0.01-1.82 0.02-0.11 0-0.55 0.03-0.96 0.05-0.41 0.03-1.11 0.08-1.56 0.13-0.45 0.04-1.1 0.12-1.44 0.16-0.34 0.05-0.86 0.13-1.15 0.17-0.28 0.05-0.86 0.15-1.29 0.23-0.42 0.08-1.1 0.23-1.5 0.32s-1.11 0.27-1.58 0.39c-0.46 0.13-1.12 0.31-1.45 0.42-0.34 0.1-0.87 0.27-1.18 0.38-0.31 0.1-0.9 0.31-1.32 0.47-0.41 0.16-1.05 0.41-1.41 0.56-0.37 0.16-1 0.43-1.4 0.61-0.4 0.19-1.09 0.52-1.52 0.75-0.44 0.22-1.04 0.54-1.34 0.7-0.3 0.17-0.83 0.48-1.19 0.7s-0.77 0.5-0.91 0.62c-0.14 0.13-0.34 0.35-0.44 0.5-0.1 0.14-0.25 0.39-0.34 0.56-0.08 0.17-0.2 0.49-0.26 0.71-0.08 0.33-0.1 0.5-0.1 0.94 0 0.38 0.02 0.63 0.07 0.83 0.04 0.16 0.16 0.49 0.27 0.72 0.16 0.32 0.28 0.49 0.51 0.74 0.16 0.18 0.41 0.4 0.55 0.49 0.13 0.09 0.39 0.24 0.58 0.33s0.49 0.2 0.68 0.25c0.25 0.07 0.46 0.09 0.89 0.1 0.43 0 0.64-0.02 0.86-0.08 0.16-0.04 0.38-0.12 0.5-0.17 0.11-0.05 0.45-0.24 0.75-0.42 0.3-0.17 0.79-0.46 1.09-0.63 0.3-0.16 0.92-0.49 1.38-0.71 0.45-0.23 1.14-0.55 1.51-0.72 0.38-0.17 1-0.42 1.38-0.57s1.07-0.4 1.54-0.56 1.18-0.38 1.57-0.5c0.39-0.11 0.93-0.26 1.21-0.32 0.27-0.07 0.71-0.18 0.98-0.23 0.26-0.06 0.67-0.15 0.9-0.19 0.24-0.05 0.77-0.15 1.19-0.21 0.42-0.07 1.08-0.16 1.47-0.21s1.09-0.12 1.56-0.16c0.65-0.05 1.32-0.07 2.78-0.07 1.21 0 2.18 0.02 2.64 0.05 0.41 0.03 1.13 0.1 1.61 0.16 0.48 0.05 1.2 0.14 1.59 0.2s1.08 0.19 1.54 0.28 1.21 0.26 1.67 0.37c0.46 0.12 1.11 0.29 1.46 0.4 0.34 0.1 0.99 0.31 1.44 0.46 0.44 0.15 1.15 0.41 1.58 0.58 0.42 0.17 1.04 0.42 1.37 0.57 0.34 0.15 1 0.47 1.47 0.7 0.47 0.24 1.13 0.59 1.48 0.78 0.34 0.2 0.84 0.49 1.1 0.65s0.79 0.5 1.16 0.75c0.38 0.25 1.06 0.74 1.51 1.07 0.44 0.34 1.09 0.86 1.44 1.15 0.34 0.29 0.95 0.84 1.35 1.21 0.41 0.38 1.03 1 1.39 1.38 0.36 0.39 0.82 0.91 1.04 1.16 0.21 0.26 0.53 0.64 0.7 0.86 0.18 0.22 0.48 0.61 0.67 0.87 0.2 0.27 0.56 0.77 0.8 1.13s0.63 0.97 0.87 1.38c0.25 0.4 0.61 1.04 0.82 1.43s0.53 1.04 0.72 1.43c0.18 0.4 0.48 1.1 0.66 1.55s0.44 1.16 0.58 1.57 0.35 1.09 0.46 1.5c0.12 0.41 0.3 1.12 0.4 1.58s0.25 1.18 0.32 1.61c0.07 0.42 0.16 1.09 0.2 1.5 0.05 0.4 0.11 0.98 0.13 1.27 0.04 0.36 0.06 2.25 0.08 5.55l0.03 5 0.07 0.25c0.04 0.14 0.16 0.42 0.26 0.63 0.09 0.21 0.26 0.49 0.37 0.63 0.1 0.14 0.32 0.37 0.47 0.52 0.15 0.14 0.38 0.32 0.51 0.4 0.12 0.08 0.34 0.2 0.48 0.27 0.14 0.06 0.4 0.16 0.59 0.2 0.23 0.06 0.46 0.09 0.77 0.09 0.3 0 0.54-0.03 0.77-0.09 0.18-0.04 0.47-0.15 0.64-0.23s0.43-0.23 0.57-0.33 0.4-0.33 0.57-0.52c0.17-0.18 0.37-0.43 0.44-0.56 0.08-0.13 0.21-0.38 0.28-0.56 0.08-0.17 0.17-0.47 0.21-0.64 0.05-0.28 0.06-0.91 0.06-4.96 0-2.56-0.02-4.97-0.04-5.38-0.02-0.4-0.07-1.05-0.1-1.45-0.04-0.41-0.12-1.08-0.17-1.5-0.06-0.43-0.16-1.11-0.23-1.51s-0.19-1.02-0.27-1.38-0.21-0.92-0.29-1.25c-0.09-0.33-0.24-0.92-0.36-1.31-0.11-0.39-0.33-1.09-0.49-1.56s-0.41-1.17-0.56-1.54c-0.15-0.38-0.39-0.96-0.53-1.3-0.14-0.33-0.49-1.07-0.77-1.64-0.29-0.58-0.68-1.33-0.87-1.67-0.19-0.35-0.5-0.87-0.68-1.17-0.17-0.3-0.5-0.81-0.72-1.15-0.21-0.33-0.61-0.91-0.88-1.29s-0.7-0.96-0.96-1.29-0.65-0.82-0.87-1.09c-0.22-0.26-0.63-0.73-0.9-1.04-0.28-0.31-0.85-0.91-1.27-1.35-0.43-0.43-1.07-1.05-1.42-1.38-0.36-0.32-0.85-0.77-1.11-0.98-0.25-0.22-0.69-0.59-0.98-0.82-0.28-0.23-0.87-0.68-1.29-0.99-0.42-0.32-1.18-0.85-1.69-1.19-0.5-0.34-1.26-0.82-1.69-1.07-0.42-0.26-1.13-0.66-1.56-0.89-0.44-0.24-1.19-0.63-1.67-0.86s-1.18-0.56-1.54-0.72c-0.37-0.16-1.03-0.43-1.46-0.6-0.44-0.18-1.11-0.43-1.5-0.57-0.39-0.13-1.05-0.35-1.46-0.48-0.42-0.12-1.13-0.33-1.59-0.46-0.46-0.12-1.17-0.3-1.58-0.39-0.41-0.1-0.99-0.22-1.28-0.28-0.3-0.06-0.87-0.16-1.27-0.23-0.41-0.06-1.03-0.16-1.37-0.2-0.35-0.05-0.9-0.11-1.23-0.15-0.33-0.03-0.85-0.08-1.15-0.11-0.3-0.02-0.87-0.06-1.27-0.08s-1.45-0.04-2.33-0.03zm-29.78 13.82c-0.13-0.01-0.35 0-0.51 0.02-0.15 0.01-0.38 0.06-0.52 0.1-0.13 0.03-0.38 0.14-0.55 0.22-0.17 0.09-0.43 0.25-0.57 0.35-0.14 0.11-0.37 0.3-0.5 0.43-0.14 0.14-0.49 0.53-0.77 0.88-0.29 0.34-0.74 0.91-1.01 1.27-0.26 0.35-0.64 0.87-0.83 1.16-0.2 0.29-0.49 0.74-0.66 1s-0.51 0.84-0.76 1.27c-0.25 0.44-0.67 1.23-0.93 1.75-0.26 0.53-0.6 1.25-0.75 1.61s-0.39 0.94-0.53 1.29c-0.14 0.36-0.37 1.01-0.52 1.44-0.15 0.44-0.36 1.11-0.47 1.5s-0.27 0.98-0.36 1.31c-0.08 0.33-0.21 0.89-0.29 1.25s-0.21 1.04-0.29 1.51-0.19 1.22-0.25 1.67c-0.05 0.44-0.13 1.13-0.16 1.52-0.04 0.39-0.09 1.13-0.11 1.65-0.03 0.65-0.04 7.31-0.03 21.99l0.01 21.06 0.07 0.25c0.04 0.14 0.14 0.39 0.22 0.55 0.08 0.17 0.2 0.4 0.28 0.5 0.07 0.11 0.21 0.29 0.3 0.4 0.09 0.12 0.3 0.31 0.46 0.44s0.45 0.32 0.63 0.41c0.18 0.1 0.45 0.21 0.6 0.26s0.43 0.11 0.62 0.13c0.23 0.03 0.47 0.02 0.69 0 0.19-0.03 0.5-0.1 0.69-0.16 0.19-0.07 0.5-0.21 0.68-0.33 0.19-0.11 0.48-0.34 0.66-0.51 0.17-0.17 0.4-0.43 0.5-0.57 0.09-0.15 0.24-0.4 0.31-0.57 0.08-0.16 0.18-0.41 0.22-0.55l0.07-0.25 0.03-21.41c0.02-15.99 0.03-21.55 0.07-21.94 0.03-0.28 0.08-0.79 0.11-1.12 0.04-0.34 0.12-0.92 0.17-1.3 0.06-0.37 0.17-0.96 0.23-1.31 0.07-0.34 0.21-0.96 0.31-1.36 0.11-0.41 0.28-1.05 0.4-1.43 0.11-0.37 0.32-1.01 0.46-1.41 0.14-0.39 0.37-1 0.52-1.35 0.14-0.34 0.4-0.93 0.58-1.31 0.17-0.38 0.49-1.01 0.7-1.4s0.55-0.99 0.75-1.33c0.21-0.34 0.6-0.96 0.87-1.36 0.27-0.41 0.7-1.01 0.95-1.34 0.24-0.32 0.58-0.76 0.74-0.97s0.37-0.5 0.45-0.64c0.08-0.15 0.21-0.45 0.28-0.67l0.14-0.4v-0.62c0-0.54-0.01-0.67-0.1-0.93-0.05-0.19-0.18-0.44-0.35-0.69-0.14-0.21-0.43-0.56-0.65-0.78-0.22-0.23-0.52-0.49-0.67-0.58-0.14-0.1-0.4-0.25-0.57-0.32-0.16-0.08-0.42-0.17-0.57-0.2-0.14-0.03-0.36-0.07-0.49-0.08zm29.78 0.77c-0.54 0-1.26 0.02-1.59 0.04s-0.9 0.06-1.27 0.1c-0.37 0.03-0.99 0.11-1.39 0.17s-1.02 0.16-1.38 0.23-0.96 0.2-1.34 0.29-1.04 0.27-1.47 0.39c-0.43 0.13-1.07 0.34-1.44 0.46-0.36 0.13-0.94 0.36-1.3 0.5-0.36 0.15-0.86 0.36-1.13 0.48-0.26 0.12-0.73 0.35-1.05 0.51s-0.82 0.42-1.1 0.58c-0.29 0.16-0.74 0.42-1.01 0.59-0.27 0.16-0.73 0.46-1.04 0.67-0.3 0.2-0.86 0.59-1.23 0.87s-0.89 0.69-1.16 0.91c-0.26 0.22-0.71 0.62-1 0.88-0.28 0.27-0.81 0.78-1.16 1.15-0.36 0.36-0.89 0.94-1.19 1.28-0.29 0.35-0.75 0.92-1.02 1.28s-0.71 0.98-0.97 1.38c-0.27 0.4-0.64 0.98-0.82 1.31-0.19 0.32-0.55 0.98-0.79 1.48-0.25 0.49-0.55 1.12-0.67 1.4-0.12 0.29-0.34 0.84-0.48 1.23-0.15 0.4-0.35 1-0.46 1.35-0.1 0.34-0.25 0.89-0.34 1.21-0.08 0.32-0.21 0.9-0.29 1.29s-0.18 0.97-0.23 1.29c-0.04 0.32-0.11 0.87-0.15 1.21-0.03 0.35-0.08 1.17-0.1 1.84-0.03 0.67-0.04 2.76-0.03 4.69l0.01 3.48 0.1 0.33c0.05 0.19 0.16 0.48 0.24 0.65s0.22 0.42 0.32 0.56 0.32 0.38 0.49 0.55c0.17 0.16 0.46 0.38 0.64 0.49 0.17 0.11 0.47 0.26 0.66 0.32 0.19 0.07 0.48 0.14 0.66 0.17s0.44 0.03 0.61 0.02c0.17-0.02 0.44-0.07 0.62-0.11 0.17-0.04 0.44-0.14 0.6-0.23 0.16-0.08 0.4-0.22 0.53-0.31 0.14-0.09 0.37-0.29 0.53-0.44 0.15-0.16 0.36-0.42 0.47-0.57 0.1-0.15 0.23-0.38 0.29-0.51 0.05-0.13 0.14-0.37 0.19-0.54l0.09-0.3 0.03-4.5c0.02-3.91 0.03-4.58 0.1-5.07 0.04-0.31 0.12-0.84 0.18-1.19 0.05-0.34 0.18-0.95 0.29-1.36 0.1-0.41 0.29-1.07 0.43-1.48 0.14-0.4 0.37-1 0.51-1.32 0.13-0.32 0.4-0.89 0.59-1.26 0.19-0.36 0.51-0.93 0.71-1.26s0.54-0.84 0.74-1.13c0.21-0.29 0.55-0.73 0.75-0.98 0.21-0.26 0.59-0.7 0.85-0.99 0.27-0.29 0.7-0.73 0.97-0.98s0.68-0.62 0.92-0.83c0.25-0.2 0.69-0.55 0.99-0.77 0.29-0.22 0.78-0.56 1.08-0.76s0.8-0.5 1.1-0.68c0.31-0.18 0.9-0.49 1.32-0.69 0.41-0.2 1.03-0.47 1.37-0.61 0.35-0.14 0.97-0.37 1.38-0.5 0.41-0.14 1.09-0.34 1.51-0.44 0.41-0.11 1.05-0.25 1.41-0.32 0.37-0.07 0.96-0.16 1.31-0.21 0.36-0.05 0.89-0.11 1.19-0.13 0.31-0.03 1.14-0.06 1.96-0.06 1.04 0.01 1.61 0.03 2.15 0.08 0.4 0.04 0.97 0.11 1.27 0.15 0.3 0.05 0.8 0.13 1.11 0.19s0.82 0.17 1.14 0.25 0.84 0.22 1.15 0.32c0.31 0.09 0.88 0.29 1.27 0.43 0.39 0.15 0.99 0.39 1.33 0.54 0.35 0.15 0.88 0.41 1.19 0.57 0.3 0.16 0.76 0.42 1.02 0.57 0.25 0.15 0.69 0.42 0.96 0.61 0.28 0.18 0.71 0.48 0.96 0.67 0.26 0.19 0.7 0.54 0.99 0.77 0.28 0.24 0.86 0.78 1.29 1.21 0.42 0.42 0.95 0.99 1.17 1.25 0.22 0.27 0.54 0.67 0.71 0.9s0.49 0.69 0.71 1.02 0.51 0.79 0.64 1.02 0.36 0.67 0.52 0.98c0.16 0.32 0.39 0.82 0.52 1.13s0.36 0.92 0.5 1.35c0.15 0.44 0.33 1.06 0.41 1.38s0.2 0.84 0.25 1.15c0.06 0.31 0.13 0.79 0.17 1.08s0.08 0.6 0.09 0.69c0.02 0.09 0.04 11.8 0.06 26.02l0.02 25.85 0.14 0.4c0.07 0.22 0.22 0.54 0.32 0.72 0.11 0.18 0.34 0.48 0.51 0.66 0.18 0.19 0.44 0.42 0.58 0.52s0.39 0.25 0.56 0.33 0.46 0.18 0.64 0.23c0.22 0.06 0.46 0.08 0.75 0.08 0.27 0 0.54-0.03 0.76-0.08 0.18-0.04 0.44-0.13 0.58-0.19 0.13-0.06 0.37-0.19 0.52-0.29 0.15-0.09 0.38-0.28 0.52-0.4 0.13-0.12 0.33-0.35 0.45-0.5 0.11-0.15 0.28-0.42 0.37-0.6 0.09-0.19 0.2-0.48 0.24-0.66l0.09-0.33v-25.65c0-17.12-0.02-25.84-0.05-26.23-0.02-0.32-0.08-0.89-0.12-1.27-0.05-0.38-0.13-0.97-0.19-1.3-0.06-0.34-0.17-0.91-0.25-1.26s-0.21-0.88-0.29-1.18c-0.08-0.29-0.2-0.73-0.27-0.95-0.08-0.23-0.24-0.73-0.38-1.1s-0.37-0.96-0.52-1.31-0.46-1-0.68-1.45-0.57-1.1-0.77-1.44c-0.21-0.34-0.57-0.92-0.81-1.28-0.23-0.37-0.65-0.96-0.92-1.32-0.28-0.36-0.67-0.86-0.88-1.11s-0.64-0.74-0.96-1.09-0.85-0.88-1.18-1.19c-0.32-0.31-0.74-0.69-0.93-0.85-0.18-0.16-0.53-0.45-0.77-0.65-0.24-0.19-0.62-0.5-0.85-0.67s-0.62-0.45-0.86-0.62c-0.24-0.16-0.69-0.46-1-0.66-0.31-0.19-0.79-0.48-1.06-0.64-0.28-0.16-0.8-0.45-1.17-0.64s-0.92-0.46-1.23-0.6-0.93-0.41-1.38-0.59c-0.44-0.18-1.15-0.43-1.57-0.57-0.41-0.14-0.99-0.32-1.29-0.41-0.29-0.08-0.83-0.22-1.2-0.31s-1.02-0.23-1.44-0.31c-0.43-0.08-1.13-0.19-1.57-0.25-0.43-0.05-1-0.12-1.27-0.15-0.26-0.02-0.8-0.06-1.21-0.08-0.4-0.02-1.17-0.04-1.7-0.03v-0.01zm-0.67 14.15c-0.11 0.01-0.44 0.04-0.75 0.06-0.31 0.03-0.89 0.1-1.29 0.17s-1.01 0.2-1.36 0.29-0.86 0.24-1.14 0.33-0.7 0.25-0.93 0.34c-0.24 0.09-0.7 0.3-1.02 0.45-0.32 0.16-0.79 0.4-1.04 0.55-0.25 0.14-0.69 0.41-0.98 0.6-0.29 0.2-0.72 0.51-0.97 0.7-0.25 0.2-0.68 0.56-0.96 0.81-0.27 0.25-0.7 0.67-0.94 0.93-0.24 0.27-0.58 0.66-0.76 0.88-0.18 0.23-0.44 0.58-0.59 0.8-0.15 0.21-0.41 0.61-0.57 0.89-0.17 0.27-0.43 0.76-0.59 1.08s-0.36 0.77-0.45 1-0.24 0.65-0.33 0.94c-0.1 0.29-0.22 0.71-0.28 0.94-0.05 0.23-0.14 0.61-0.18 0.85-0.05 0.24-0.12 0.71-0.16 1.05l-0.08 0.6v58.09l0.09 0.34c0.05 0.19 0.17 0.5 0.27 0.7 0.09 0.19 0.29 0.5 0.44 0.68 0.14 0.19 0.4 0.45 0.56 0.59 0.17 0.14 0.47 0.33 0.66 0.44 0.2 0.1 0.51 0.23 0.69 0.28 0.27 0.08 0.43 0.09 0.84 0.09 0.33 0 0.58-0.02 0.77-0.07 0.15-0.04 0.43-0.16 0.64-0.26s0.51-0.29 0.67-0.41c0.16-0.13 0.41-0.37 0.55-0.53 0.14-0.17 0.34-0.44 0.43-0.61 0.1-0.17 0.23-0.46 0.3-0.65 0.07-0.22 0.13-0.52 0.16-0.77 0.02-0.25 0.04-11.1 0.04-28.97 0-25.63 0.01-28.6 0.06-29 0.04-0.24 0.1-0.55 0.13-0.69s0.12-0.43 0.19-0.65 0.24-0.62 0.37-0.9 0.36-0.69 0.51-0.92c0.15-0.22 0.43-0.59 0.61-0.81 0.18-0.21 0.45-0.51 0.6-0.64 0.14-0.14 0.4-0.36 0.57-0.49 0.17-0.14 0.45-0.34 0.62-0.45 0.16-0.12 0.49-0.31 0.73-0.44 0.23-0.12 0.61-0.3 0.83-0.39s0.62-0.24 0.89-0.32 0.73-0.19 1.04-0.24c0.3-0.06 0.84-0.13 1.19-0.15 0.36-0.03 0.86-0.04 1.13-0.02 0.26 0.01 0.69 0.05 0.96 0.08 0.26 0.04 0.67 0.11 0.91 0.17s0.62 0.16 0.84 0.23c0.21 0.07 0.59 0.22 0.83 0.32 0.24 0.11 0.59 0.28 0.77 0.38s0.49 0.28 0.67 0.41c0.19 0.12 0.52 0.37 0.74 0.55 0.21 0.18 0.51 0.46 0.66 0.62s0.38 0.42 0.51 0.58 0.34 0.46 0.47 0.67c0.13 0.2 0.35 0.59 0.48 0.87 0.13 0.27 0.3 0.7 0.38 0.96 0.08 0.25 0.18 0.61 0.22 0.81 0.04 0.19 0.08 0.39 0.09 0.44 0.02 0.04 0.04 3.84 0.05 8.44l0.03 8.36 0.11 0.38c0.07 0.2 0.2 0.51 0.29 0.68 0.09 0.16 0.24 0.41 0.35 0.55 0.1 0.13 0.31 0.35 0.46 0.49 0.15 0.13 0.42 0.33 0.59 0.43 0.18 0.11 0.43 0.23 0.55 0.28 0.13 0.05 0.35 0.12 0.5 0.15 0.15 0.04 0.46 0.06 0.68 0.06 0.23 0 0.55-0.03 0.71-0.06 0.17-0.04 0.46-0.14 0.65-0.23s0.46-0.24 0.6-0.35c0.15-0.1 0.41-0.33 0.58-0.51 0.18-0.19 0.41-0.49 0.51-0.66 0.11-0.18 0.24-0.47 0.29-0.64 0.06-0.18 0.13-0.44 0.15-0.59 0.03-0.19 0.04-2.73 0.03-8.53l-0.01-8.25-0.07-0.57c-0.04-0.31-0.13-0.84-0.2-1.18-0.07-0.35-0.2-0.89-0.29-1.2s-0.23-0.75-0.31-0.98c-0.09-0.23-0.27-0.66-0.41-0.97-0.13-0.31-0.38-0.81-0.55-1.12-0.17-0.3-0.44-0.75-0.61-1s-0.41-0.6-0.55-0.78-0.36-0.46-0.48-0.61c-0.13-0.15-0.4-0.45-0.61-0.67-0.2-0.23-0.59-0.61-0.86-0.85-0.27-0.25-0.7-0.6-0.94-0.8-0.25-0.19-0.69-0.5-0.98-0.7-0.29-0.19-0.76-0.48-1.06-0.65s-0.72-0.39-0.93-0.49c-0.22-0.1-0.61-0.27-0.86-0.37-0.25-0.11-0.73-0.28-1.06-0.39-0.34-0.12-0.91-0.28-1.28-0.37-0.36-0.09-0.9-0.2-1.18-0.25s-0.77-0.12-1.08-0.15c-0.32-0.03-0.98-0.07-1.47-0.08s-0.98-0.01-1.08 0zm0.77 12.61v0.01c-0.14 0-0.38 0.03-0.54 0.06s-0.42 0.1-0.57 0.15c-0.16 0.06-0.42 0.18-0.59 0.28-0.2 0.12-0.45 0.33-0.72 0.6-0.25 0.26-0.48 0.54-0.59 0.72-0.09 0.16-0.22 0.41-0.28 0.57-0.06 0.15-0.14 0.41-0.17 0.57-0.06 0.27-0.06 2.33-0.06 17.41 0 15.06 0 17.15 0.06 17.41 0.03 0.17 0.12 0.44 0.19 0.62 0.07 0.17 0.22 0.45 0.33 0.61s0.32 0.42 0.46 0.56 0.38 0.34 0.52 0.44c0.14 0.11 0.4 0.26 0.57 0.34s0.45 0.18 0.64 0.23c0.22 0.06 0.46 0.08 0.77 0.08s0.55-0.02 0.78-0.08c0.18-0.05 0.5-0.17 0.71-0.28 0.21-0.1 0.51-0.3 0.66-0.43 0.16-0.13 0.4-0.36 0.53-0.52 0.14-0.17 0.33-0.47 0.45-0.71 0.11-0.23 0.24-0.54 0.28-0.69l0.07-0.27v-34.66l-0.07-0.27c-0.04-0.15-0.14-0.41-0.22-0.57-0.08-0.17-0.22-0.42-0.32-0.56-0.1-0.15-0.3-0.39-0.45-0.54s-0.4-0.35-0.54-0.45c-0.15-0.1-0.41-0.25-0.58-0.33s-0.49-0.18-0.69-0.22c-0.21-0.05-0.49-0.08-0.63-0.08zm37.88 13.08c-0.25-0.02-0.51 0-0.72 0.04-0.18 0.03-0.46 0.12-0.64 0.19-0.17 0.07-0.45 0.22-0.63 0.34-0.17 0.11-0.44 0.33-0.6 0.49-0.15 0.15-0.37 0.42-0.48 0.59-0.12 0.18-0.27 0.46-0.34 0.63-0.07 0.16-0.15 0.45-0.19 0.64l-0.07 0.33 0.01 11.17 0.02 11.18 0.09 0.31c0.05 0.16 0.16 0.43 0.25 0.6 0.08 0.16 0.2 0.38 0.27 0.49 0.07 0.1 0.25 0.31 0.4 0.47 0.16 0.16 0.39 0.37 0.53 0.47 0.15 0.1 0.42 0.26 0.61 0.35s0.48 0.19 0.64 0.23c0.18 0.05 0.45 0.07 0.73 0.07s0.54-0.02 0.73-0.07c0.16-0.04 0.45-0.14 0.64-0.23s0.46-0.25 0.6-0.35 0.38-0.31 0.53-0.47 0.34-0.37 0.41-0.47c0.07-0.11 0.19-0.33 0.27-0.49 0.09-0.17 0.2-0.45 0.25-0.63l0.09-0.32v-22.6l-0.13-0.4c-0.08-0.22-0.22-0.54-0.33-0.72-0.1-0.18-0.33-0.48-0.51-0.67-0.18-0.18-0.43-0.41-0.57-0.51s-0.38-0.24-0.55-0.32c-0.16-0.09-0.44-0.19-0.61-0.24-0.16-0.05-0.48-0.09-0.7-0.1zm-63.08 2.35c-0.25 0.01-0.51 0.03-0.7 0.08-0.16 0.05-0.37 0.11-0.48 0.15-0.1 0.04-0.33 0.16-0.5 0.26-0.18 0.11-0.45 0.3-0.6 0.44s-0.37 0.38-0.49 0.53c-0.11 0.15-0.28 0.42-0.37 0.61-0.09 0.18-0.21 0.49-0.26 0.68l-0.09 0.36v31.86l0.08 0.29c0.04 0.16 0.15 0.45 0.24 0.64 0.08 0.19 0.25 0.47 0.37 0.63 0.11 0.15 0.31 0.38 0.45 0.51 0.13 0.13 0.39 0.33 0.56 0.44 0.18 0.12 0.47 0.27 0.65 0.34 0.17 0.07 0.44 0.14 0.58 0.17 0.16 0.03 0.45 0.04 0.75 0.03 0.4-0.01 0.56-0.04 0.85-0.14 0.2-0.07 0.51-0.21 0.69-0.31 0.17-0.1 0.47-0.33 0.66-0.51 0.21-0.19 0.46-0.48 0.6-0.69s0.3-0.52 0.37-0.72 0.15-0.51 0.18-0.69c0.03-0.24 0.04-4.61 0.03-16.13l-0.01-15.81-0.08-0.24c-0.04-0.14-0.12-0.36-0.17-0.49-0.05-0.14-0.16-0.35-0.24-0.48-0.07-0.13-0.25-0.37-0.39-0.53-0.14-0.17-0.39-0.41-0.56-0.54-0.18-0.13-0.49-0.32-0.71-0.42s-0.53-0.21-0.7-0.25-0.48-0.07-0.71-0.07zm37.81 10.66c-0.32-0.02-0.56 0-0.73 0.03-0.13 0.04-0.37 0.11-0.53 0.18-0.16 0.06-0.43 0.2-0.61 0.32-0.17 0.11-0.47 0.36-0.65 0.55s-0.41 0.47-0.51 0.64c-0.1 0.16-0.22 0.41-0.28 0.55-0.05 0.14-0.13 0.39-0.17 0.55l-0.06 0.3 0.01 15.39 0.01 15.39 0.13 0.37c0.07 0.2 0.22 0.52 0.34 0.7 0.11 0.19 0.34 0.49 0.53 0.68 0.18 0.19 0.45 0.42 0.6 0.52s0.4 0.24 0.56 0.32c0.17 0.07 0.42 0.16 0.56 0.2 0.15 0.04 0.41 0.08 0.59 0.09 0.17 0.02 0.46 0 0.63-0.02 0.17-0.03 0.44-0.1 0.6-0.15 0.15-0.05 0.42-0.18 0.6-0.28 0.17-0.1 0.47-0.33 0.67-0.51 0.19-0.18 0.43-0.45 0.53-0.58 0.1-0.14 0.25-0.39 0.33-0.55s0.19-0.44 0.24-0.61l0.1-0.31 0.01-15.22c0.01-12.84 0-15.27-0.05-15.55-0.03-0.19-0.12-0.49-0.19-0.67-0.07-0.19-0.22-0.48-0.34-0.65-0.11-0.18-0.34-0.45-0.5-0.61-0.16-0.17-0.42-0.38-0.57-0.49-0.16-0.1-0.4-0.23-0.53-0.29-0.14-0.06-0.38-0.15-0.54-0.2-0.18-0.05-0.48-0.08-0.78-0.09zm-13.08 19.55c-0.11 0.01-0.21 0.03-0.34 0.07-0.17 0.04-0.43 0.14-0.58 0.2-0.14 0.07-0.35 0.19-0.45 0.26-0.11 0.08-0.29 0.21-0.4 0.3s-0.3 0.29-0.43 0.44c-0.12 0.15-0.28 0.38-0.35 0.51-0.08 0.12-0.19 0.36-0.26 0.52-0.06 0.17-0.15 0.44-0.18 0.6-0.06 0.26-0.06 1.18-0.06 6.92v6.61l0.08 0.35c0.04 0.19 0.14 0.46 0.21 0.61 0.07 0.16 0.21 0.41 0.31 0.56 0.1 0.16 0.34 0.43 0.52 0.6 0.19 0.18 0.44 0.39 0.57 0.48 0.13 0.08 0.36 0.2 0.5 0.27 0.15 0.06 0.42 0.15 0.61 0.2 0.22 0.05 0.49 0.08 0.74 0.08s0.52-0.03 0.73-0.08c0.19-0.04 0.45-0.13 0.57-0.18 0.13-0.06 0.34-0.17 0.48-0.26 0.13-0.09 0.34-0.24 0.47-0.35 0.12-0.1 0.33-0.32 0.46-0.48 0.13-0.17 0.31-0.45 0.41-0.63 0.09-0.18 0.21-0.48 0.27-0.65l0.09-0.31 0.01-6.69c0.02-6.01 0.01-6.73-0.05-7.03-0.04-0.18-0.12-0.47-0.19-0.63-0.07-0.17-0.2-0.42-0.3-0.57-0.09-0.14-0.25-0.36-0.36-0.48-0.1-0.13-0.33-0.34-0.5-0.47-0.16-0.14-0.48-0.33-0.69-0.43s-0.5-0.21-0.65-0.25-0.5-0.08-0.77-0.09c-0.21-0.01-0.35-0.01-0.47 0zm-239.52 59.35c-13.52 0-20.28 6.4-20.28 19.2v98.17c0 12.94 6.76 19.42 20.28 19.42h23.13c13.67 0 20.51-6.48 20.51-19.42v-23.12h-20.07v20.72c0 2.62-0.44 4.36-1.31 5.24-0.73 0.72-2.4 1.09-5.02 1.09h-11.13c-2.62 0-4.36-0.37-5.23-1.09-0.87-0.88-1.31-2.62-1.31-5.24v-93.15c0-2.62 0.44-4.29 1.31-5.02 0.87-0.87 2.61-1.31 5.23-1.31h11.13c2.62 0 4.29 0.44 5.02 1.31 0.87 0.73 1.31 2.4 1.31 5.02v20.94h20.07v-23.56c0-12.8-6.84-19.2-20.51-19.2h-23.13zm72.13 0v136.57h19.64v-60h29.01v60h19.64v-136.57h-19.64v60.65h-29.01v-60.65h-19.64zm100.28 0v136.57h59.33v-15.93h-39.48v-46.68h31.41v-15.93h-31.41v-42.1h37.96v-15.93h-57.81zm103.28 0c-13.53 0-20.29 6.4-20.29 19.2v98.17c0 12.94 6.76 19.42 20.29 19.42h23.12c13.67 0 20.51-6.48 20.51-19.42v-23.12h-20.07v20.72c0 2.62-0.44 4.36-1.31 5.24-0.73 0.72-2.4 1.09-5.02 1.09h-11.12c-2.62 0-4.37-0.37-5.24-1.09-0.87-0.88-1.31-2.62-1.31-5.24v-93.15c0-2.62 0.44-4.29 1.31-5.02 0.87-0.87 2.62-1.31 5.24-1.31h11.12c2.62 0 4.29 0.44 5.02 1.31 0.87 0.73 1.31 2.4 1.31 5.02v20.94h20.07v-23.56c0-12.8-6.84-19.2-20.51-19.2h-23.12zm72.13 0v136.57h19.63v-136.57h-19.63zm49.08 0l-28.14 68.5 27.7 68.07h21.38l-28.58-68.07 28.8-68.5h-21.16zm43.94 0v136.57h59.34v-15.93h-39.48v-46.68h31.41v-15.93h-31.41v-42.1h37.96v-15.93h-57.82z"
     id="shadow" /><animate
     fill="freeze"
     repeatCount="indefinite"
     keySplines=".73 .18 .24 .87;          .73 .18 .24 .87;"
     calcMode="spline"
     keyTimes="0; 0.5; 1"
     values="5; 30; 5"
     begin="0s"
     dur="4s"
     to="5"
     from="5"
     attributeName="stdDeviation"
     xlink:href="#blur1" /><animate
     fill="freeze"
     repeatCount="indefinite"
     keyTimes="0; 0.5; 1"
     values="0.6; 0.1; 0.6"
     begin="0s"
     dur="4s"
     to="0.1"
     from="0.6"
     attributeName="opacity"
     xlink:href="#shadow" /><animateTransform
     repeatCount="indefinite"
     dur="4s"
     keySplines=".73 .18 .24 .87;          .73 .18 .24 .87;"
     calcMode="spline"
     values="0 0; 0 -20; 0 0"
     to="0 0"
     from="0 0"
     type="translate"
     attributeType="XML"
     attributeName="transform"
     xlink:href="#logo-hover" /><g
     id="logo-hover"><g
       transform="translate(-5e-6,-10.828)"
       id="logo-group"><path
         stroke-miterlimit="2"
         d="m 315.69,442.37 h -20.071 v -20.943 q 0,-3.9269 -1.309,-5.0177 -1.0908,-1.309 -5.0177,-1.309 h -11.126 q -3.9269,0 -5.2358,1.309 -1.309,1.0908 -1.309,5.0177 v 93.154 q 0,3.9269 1.309,5.2358 1.309,1.0908 5.2358,1.0908 h 11.126 q 3.9269,0 5.0177,-1.0908 1.309,-1.309 1.309,-5.2358 v -20.725 h 20.071 v 23.125 q 0,19.416 -20.507,19.416 h -23.125 q -20.289,0 -20.289,-19.416 v -98.172 q 0,-19.198 20.289,-19.198 h 23.125 q 20.507,0 20.507,19.198 z"
         style="font-variant-ligatures:none;fill:#ffffff;stroke-width:0;stroke-miterlimit:2"
         id="path500184" /><path
         stroke-miterlimit="2"
         d="m 392.83,399.61 h 19.634 V 536.18 H 392.83 V 476.186 H 363.815 V 536.18 H 344.181 V 399.61 h 19.634 v 60.648 h 29.015 z"
         style="font-variant-ligatures:none;fill:#ffffff;stroke-width:0;stroke-miterlimit:2"
         id="path500186" /><path
         stroke-miterlimit="2"
         d="m 464.31,520.25 h 39.487 v 15.93 h -59.34 V 399.61 h 57.812 v 15.926 h -37.96 v 42.105 h 31.415 v 15.926 h -31.415 z"
         style="font-variant-ligatures:none;fill:#ffffff;stroke-width:0;stroke-miterlimit:2"
         id="path500188" /><path
         stroke-miterlimit="2"
         d="m 591.37,442.37 h -20.071 v -20.943 q 0,-3.9269 -1.309,-5.0177 -1.0908,-1.309 -5.0177,-1.309 h -11.126 q -3.9269,0 -5.2358,1.309 -1.309,1.0908 -1.309,5.0177 v 93.154 q 0,3.9269 1.309,5.2358 1.309,1.0908 5.2358,1.0908 h 11.126 q 3.9269,0 5.0177,-1.0908 1.309,-1.309 1.309,-5.2358 v -20.725 h 20.071 v 23.125 q 0,19.416 -20.507,19.416 h -23.125 q -20.289,0 -20.289,-19.416 v -98.172 q 0,-19.198 20.289,-19.198 h 23.125 q 20.507,0 20.507,19.198 z"
         style="font-variant-ligatures:none;fill:#ffffff;stroke-width:0;stroke-miterlimit:2"
         id="path500190" /><path
         stroke-miterlimit="2"
         d="m 690.11,399.61 -28.797,68.502 28.579,68.066 h -21.38 L 640.806,468.112 668.949,399.61 Z M 619.86,536.18 V 399.61 h 19.634 v 136.57 z"
         style="font-variant-ligatures:none;fill:#ffffff;stroke-width:0;stroke-miterlimit:2"
         id="path500192" /><path
         stroke-miterlimit="2"
         d="m 732.75,520.25 h 39.487 v 15.93 h -59.34 V 399.61 h 57.812 v 15.926 h -37.96 v 42.105 h 31.415 v 15.926 h -31.415 z"
         style="font-variant-ligatures:none;fill:#ffffff;stroke-width:0;stroke-miterlimit:2"
         id="path500194" /><path
         style="fill:#fdfdfd;stroke-width:0.75"
         d="m 511.93,253.26 c -0.88283,0.004 -1.6993,0.0129 -1.814,0.0196 -0.11468,0.007 -0.54627,0.0329 -0.9591,0.0571 -0.41283,0.0246 -1.1163,0.0817 -1.5638,0.12636 -0.44702,0.045 -1.0946,0.12009 -1.4386,0.16638 -0.34402,0.0467 -0.85988,0.12218 -1.1468,0.16805 -0.28648,0.0459 -0.8682,0.1497 -1.2927,0.2306 -0.42409,0.0809 -1.0996,0.22268 -1.5012,0.31484 -0.40115,0.0922 -1.1096,0.26938 -1.5737,0.39364 -0.46412,0.12385 -1.1209,0.31109 -1.4595,0.41617 -0.3386,0.10467 -0.86857,0.27564 -1.1785,0.37947 -0.30941,0.10383 -0.90075,0.3165 -1.3136,0.47246 -0.41283,0.15596 -1.0508,0.40908 -1.4178,0.56212 -0.36696,0.15304 -0.9954,0.42868 -1.397,0.61216 -0.40115,0.18348 -1.0863,0.51708 -1.522,0.74101 -0.43577,0.22434 -1.0363,0.54376 -1.3344,0.71015 -0.29816,0.16596 -0.83482,0.47871 -1.1926,0.6943 -0.35737,0.21601 -0.76605,0.49748 -0.9078,0.6255 -0.14178,0.12844 -0.33944,0.34862 -0.43952,0.48956 -0.10008,0.14095 -0.25145,0.39532 -0.33693,0.56586 -0.0851,0.17055 -0.20267,0.48956 -0.26063,0.7089 -0.0863,0.32652 -0.10591,0.49749 -0.10716,0.94118 -10e-4,0.38322 0.02,0.62758 0.0717,0.834 0.0404,0.16054 0.16429,0.4808 0.27564,0.71224 0.15554,0.32317 0.27188,0.49456 0.50415,0.74351 0.16596,0.17764 0.412,0.39823 0.54669,0.48955 0.13469,0.0913 0.39865,0.23978 0.58671,0.32986 0.18849,0.0897 0.49248,0.20349 0.67597,0.2527 0.25687,0.0684 0.46286,0.0897 0.89655,0.093 0.42534,0.003 0.63426,-0.015 0.85485,-0.0738 0.16054,-0.0425 0.38572,-0.11884 0.5004,-0.1693 0.11467,-0.0509 0.45244,-0.23894 0.75059,-0.41783 0.29816,-0.17931 0.78938,-0.46287 1.0913,-0.63009 0.30191,-0.16764 0.92115,-0.4904 1.3761,-0.71807 0.45495,-0.22727 1.1368,-0.54919 1.5149,-0.71558 0.37864,-0.16638 0.99788,-0.42409 1.3761,-0.57296 0.37864,-0.14886 1.073,-0.40074 1.5429,-0.55961 0.47038,-0.15888 1.1738,-0.38113 1.5638,-0.49331 0.3899,-0.11217 0.93406,-0.26021 1.2093,-0.32901 0.27522,-0.0688 0.71641,-0.1718 0.97996,-0.22935 0.26396,-0.0576 0.67179,-0.14345 0.90614,-0.19099 0.23478,-0.0475 0.7698,-0.14136 1.1885,-0.2085 0.41908,-0.0671 1.0809,-0.16054 1.4707,-0.20683 0.3899,-0.0467 1.0938,-0.1176 1.5638,-0.15721 0.64968,-0.0555 1.3152,-0.0734 2.773,-0.0742 1.2143,-10e-4 2.1859,0.0188 2.6479,0.0538 0.40158,0.0304 1.1238,0.0992 1.6054,0.15346 0.48164,0.0538 1.1947,0.14761 1.5846,0.20808 0.3899,0.0605 1.0842,0.1839 1.5429,0.2748 0.45869,0.0905 1.2093,0.25896 1.668,0.37447 0.4587,0.11509 1.1163,0.29232 1.4611,0.39364 0.34445,0.10134 0.99203,0.30858 1.4387,0.46037 0.44618,0.1522 1.1584,0.41366 1.583,0.58129 0.4245,0.16763 1.0438,0.42617 1.3761,0.57463 0.33277,0.14803 0.98955,0.46204 1.4595,0.69722 0.47037,0.23519 1.1363,0.58672 1.4803,0.78188 0.34403,0.19473 0.8415,0.48663 1.105,0.64885 0.26355,0.16221 0.78773,0.5004 1.1638,0.75105 0.37655,0.25104 1.0521,0.7335 1.5012,1.0721 0.44952,0.33902 1.0984,0.85402 1.4424,1.1451 0.34402,0.29064 0.95452,0.83647 1.3569,1.2126 0.40199,0.37613 1.0241,0.9987 1.382,1.3832 0.3582,0.38447 0.8265,0.90615 1.0412,1.1588 0.21433,0.2527 0.53209,0.63717 0.70639,0.85485 0.1739,0.21726 0.47623,0.61132 0.67138,0.87487 0.19557,0.26354 0.55294,0.77018 0.79395,1.1259 0.24144,0.35528 0.6355,0.97455 0.87614,1.3761 0.24062,0.40115 0.60841,1.0487 0.8169,1.4386 0.20892,0.3899 0.53043,1.0334 0.71474,1.4303 0.1839,0.39657 0.48247,1.0909 0.66303,1.5429 0.18056,0.45161 0.44244,1.1593 0.58171,1.5721 0.1397,0.41283 0.3482,1.0871 0.46371,1.4987 0.11551,0.41116 0.29398,1.1242 0.39699,1.5846 0.103,0.45995 0.24394,1.1813 0.31275,1.6025 0.0692,0.42117 0.16263,1.0967 0.20808,1.5012 0.045,0.40449 0.10425,0.97913 0.13135,1.2772 0.0326,0.35737 0.0592,2.246 0.0776,5.5461 l 0.028,5.004 0.0734,0.2502 c 0.0404,0.13761 0.15388,0.41909 0.25188,0.6255 0.0976,0.20642 0.2652,0.4904 0.37154,0.63093 0.10675,0.14052 0.319,0.37279 0.47163,0.51541 0.15303,0.14303 0.38072,0.32568 0.50582,0.40615 0.12551,0.0801 0.34319,0.19933 0.48372,0.26522 0.14011,0.0655 0.40532,0.15804 0.5888,0.20558 0.23394,0.0605 0.46454,0.0859 0.77145,0.0859 0.30608,0 0.53835,-0.0259 0.77145,-0.0855 0.18348,-0.0475 0.47288,-0.15178 0.6426,-0.23227 0.17013,-0.0805 0.42575,-0.22977 0.56837,-0.33151 0.14262,-0.10217 0.39782,-0.33443 0.56671,-0.51666 0.16888,-0.18223 0.36987,-0.43493 0.44619,-0.56128 0.0763,-0.12677 0.20182,-0.37697 0.27855,-0.55628 0.0771,-0.17931 0.1693,-0.47079 0.20516,-0.6476 0.0572,-0.28065 0.0655,-0.91118 0.065,-4.9623 -4.1e-4,-2.5525 -0.0192,-4.9694 -0.0417,-5.3705 -0.0225,-0.40157 -0.0705,-1.0583 -0.10633,-1.4595 -0.0363,-0.40157 -0.11176,-1.0767 -0.16805,-1.5012 -0.0563,-0.42451 -0.1593,-1.1 -0.22852,-1.5012 -0.0696,-0.40157 -0.19056,-1.0238 -0.26896,-1.3832 -0.0784,-0.35946 -0.20975,-0.92243 -0.2919,-1.251 -0.0821,-0.3286 -0.24145,-0.91658 -0.35404,-1.3064 -0.11259,-0.38989 -0.33443,-1.0938 -0.49372,-1.5638 -0.15888,-0.47038 -0.41075,-1.1647 -0.5592,-1.5429 -0.14887,-0.37822 -0.38739,-0.96037 -0.53001,-1.2927 -0.14303,-0.33277 -0.49081,-1.0738 -0.77355,-1.6472 -0.28272,-0.57337 -0.6722,-1.324 -0.86572,-1.668 -0.19307,-0.34402 -0.4979,-0.86947 -0.67637,-1.1676 -0.17889,-0.29815 -0.50332,-0.81442 -0.72016,-1.1468 -0.21726,-0.33277 -0.61591,-0.9153 -0.88613,-1.2952 -0.27021,-0.37989 -0.70181,-0.96158 -0.95955,-1.2927 -0.25771,-0.3311 -0.64843,-0.81818 -0.86865,-1.0817 -0.22017,-0.26396 -0.62591,-0.73267 -0.90157,-1.0417 -0.27563,-0.309 -0.84818,-0.91658 -1.2727,-1.3498 -0.42451,-0.43368 -1.0621,-1.0542 -1.4178,-1.379 -0.35528,-0.32526 -0.85275,-0.76897 -1.105,-0.98617 -0.25228,-0.21726 -0.69305,-0.5838 -0.97995,-0.8148 -0.28647,-0.23061 -0.8682,-0.67846 -1.2927,-0.99495 -0.4245,-0.3165 -1.1842,-0.84983 -1.6888,-1.186 -0.50457,-0.33568 -1.2644,-0.819 -1.6888,-1.0733 -0.4245,-0.25437 -1.128,-0.65594 -1.5638,-0.89235 -0.43576,-0.23603 -1.1864,-0.62133 -1.668,-0.85568 -0.48163,-0.23435 -1.1764,-0.55752 -1.5442,-0.71849 -0.36737,-0.16055 -1.0241,-0.43285 -1.4595,-0.60465 -0.43493,-0.17222 -1.1104,-0.42576 -1.5008,-0.56337 -0.39032,-0.13761 -1.0471,-0.35403 -1.4595,-0.4808 -0.41242,-0.12677 -1.1251,-0.33277 -1.5842,-0.45828 -0.4587,-0.1251 -1.1718,-0.30399 -1.5846,-0.39698 -0.41241,-0.093 -0.9891,-0.21685 -1.2814,-0.27481 -0.29232,-0.058 -0.8649,-0.16137 -1.2718,-0.22935 -0.40742,-0.0684 -1.0221,-0.16137 -1.3661,-0.20683 -0.34402,-0.045 -0.89737,-0.11051 -1.2302,-0.14553 -0.33234,-0.0346 -0.84862,-0.083 -1.1468,-0.10759 -0.29815,-0.0242 -0.8703,-0.0626 -1.2718,-0.0847 -0.40115,-0.0221 -1.452,-0.0375 -2.3352,-0.0338 z m -29.774,13.827 c -0.12635,-0.01 -0.35487,-0.004 -0.50832,0.0129 -0.15346,0.0167 -0.38656,0.0617 -0.51833,0.10008 -0.13178,0.0384 -0.38156,0.14136 -0.55503,0.22852 -0.17389,0.0876 -0.43077,0.24394 -0.57171,0.34777 -0.14053,0.10383 -0.36696,0.29816 -0.50291,0.43202 -0.13594,0.13344 -0.48205,0.52584 -0.76935,0.87195 -0.28689,0.34569 -0.73809,0.91785 -1.0016,1.2718 -0.26397,0.35361 -0.6401,0.87735 -0.8361,1.1643 -0.19599,0.28648 -0.4929,0.73684 -0.6597,1.0008 -0.16679,0.26354 -0.50831,0.8361 -0.75892,1.2718 -0.25062,0.43576 -0.66887,1.2239 -0.92865,1.7514 -0.2602,0.5275 -0.59839,1.2497 -0.75142,1.6054 -0.15346,0.35528 -0.39115,0.93697 -0.52834,1.2927 -0.13719,0.35528 -0.3703,1.0029 -0.51833,1.4386 -0.14804,0.43576 -0.36113,1.1113 -0.47372,1.5012 -0.11259,0.38989 -0.27188,0.97785 -0.35403,1.3064 -0.0822,0.3286 -0.21392,0.89153 -0.29232,1.251 -0.0784,0.35945 -0.20892,1.0379 -0.29024,1.5083 -0.0809,0.46995 -0.19348,1.2206 -0.24977,1.668 -0.0563,0.44702 -0.13136,1.1321 -0.16597,1.522 -0.035,0.38989 -0.0838,1.1309 -0.10884,1.6472 -0.0313,0.65427 -0.0413,7.3162 -0.0325,21.997 l 0.0129,21.058 0.0742,0.2502 c 0.0409,0.13761 0.13844,0.38614 0.21684,0.5521 0.0784,0.16639 0.20307,0.39157 0.27772,0.5004 0.0742,0.10926 0.21101,0.28982 0.30441,0.40158 0.093,0.11133 0.30107,0.309 0.46245,0.43868 0.16097,0.12969 0.44244,0.31317 0.6255,0.40824 0.18265,0.0947 0.45328,0.21184 0.60132,0.26021 0.14803,0.0484 0.42617,0.1055 0.61799,0.12761 0.22768,0.0259 0.46787,0.0246 0.69013,-0.003 0.18765,-0.023 0.49706,-0.0959 0.68805,-0.16139 0.19099,-0.0655 0.49832,-0.20974 0.68346,-0.32067 0.18515,-0.11134 0.48038,-0.34319 0.65636,-0.51499 0.17597,-0.17223 0.3999,-0.43118 0.49789,-0.57588 0.0976,-0.1447 0.24144,-0.39782 0.31943,-0.56295 0.0776,-0.16472 0.17472,-0.41241 0.21558,-0.55002 l 0.0742,-0.2502 0.0238,-21.413 c 0.0175,-15.983 0.0363,-21.545 0.073,-21.934 0.0271,-0.2869 0.078,-0.79358 0.11342,-1.1259 0.035,-0.33277 0.11175,-0.91448 0.17013,-1.2927 0.0584,-0.37822 0.16221,-0.96953 0.23061,-1.3136 0.0688,-0.34403 0.20766,-0.95783 0.30941,-1.364 0.10175,-0.40658 0.27772,-1.0471 0.39115,-1.4236 0.11384,-0.37655 0.32275,-1.0104 0.46495,-1.4086 0.14178,-0.39824 0.37488,-1.0058 0.51834,-1.3498 0.14303,-0.34402 0.40407,-0.93532 0.58004,-1.3136 0.17598,-0.37822 0.49081,-1.007 0.69931,-1.397 0.2085,-0.3899 0.54836,-0.99038 0.7548,-1.3344 0.20642,-0.34402 0.59798,-0.957 0.86985,-1.3624 0.27147,-0.40533 0.69556,-1.0058 0.942,-1.3344 0.24686,-0.3286 0.58214,-0.76643 0.74601,-0.97283 0.16389,-0.20641 0.36446,-0.49748 0.44577,-0.64635 0.0813,-0.14929 0.20934,-0.44953 0.28481,-0.6672 l 0.13678,-0.39615 0.001,-0.6255 c 8.2e-4,-0.53543 -0.0129,-0.66887 -0.0938,-0.92617 -0.0596,-0.18932 -0.18973,-0.44286 -0.35236,-0.68597 -0.14178,-0.21225 -0.43702,-0.5667 -0.65594,-0.7881 -0.21893,-0.22143 -0.51792,-0.48247 -0.66429,-0.58046 -0.14637,-0.098 -0.40282,-0.24144 -0.57046,-0.31859 -0.16763,-0.0776 -0.42325,-0.16722 -0.56795,-0.19933 -0.14511,-0.0321 -0.36654,-0.0659 -0.49289,-0.0759 z m 29.774,0.76643 c -0.53876,0.003 -1.2518,0.0208 -1.5846,0.0392 -0.33235,0.0188 -0.90487,0.0638 -1.2718,0.10008 -0.36696,0.0367 -0.99412,0.11384 -1.3936,0.17139 -0.3999,0.058 -1.0192,0.16138 -1.3761,0.2306 -0.35737,0.0688 -0.9591,0.19933 -1.3373,0.29024 -0.3778,0.0909 -1.0388,0.26771 -1.4678,0.39323 -0.42951,0.12552 -1.0771,0.33318 -1.4395,0.46162 -0.36196,0.12844 -0.94913,0.35194 -1.3048,0.49665 -0.35528,0.14469 -0.86108,0.3607 -1.1242,0.47955 -0.26271,0.11884 -0.73934,0.34736 -1.0592,0.50748 -0.32026,0.16055 -0.81398,0.4216 -1.0979,0.58089 -0.28355,0.15888 -0.73558,0.42325 -1.0046,0.58713 -0.26896,0.1643 -0.73809,0.46454 -1.0425,0.66804 -0.30441,0.20307 -0.85815,0.59839 -1.2302,0.87817 -0.37196,0.27981 -0.89197,0.68847 -1.1559,0.9078 -0.26355,0.21976 -0.71391,0.61633 -1.0008,0.88155 -0.28647,0.2648 -0.81315,0.77978 -1.1697,1.1443 -0.35654,0.36404 -0.88778,0.94282 -1.181,1.286 -0.29315,0.3432 -0.7548,0.91823 -1.0262,1.2777 -0.27147,0.35945 -0.7089,0.9795 -0.97245,1.3778 -0.26313,0.39824 -0.63217,0.98663 -0.82028,1.3077 -0.18765,0.32109 -0.5421,0.98745 -0.78772,1.4804 -0.24561,0.49289 -0.54419,1.1272 -0.66386,1.409 -0.11927,0.28147 -0.33735,0.83527 -0.48456,1.2302 -0.14678,0.39448 -0.35236,0.99915 -0.45619,1.3432 -0.10425,0.34403 -0.25729,0.88823 -0.34028,1.2093 -0.083,0.32109 -0.21392,0.90278 -0.29148,1.2927 -0.0771,0.3899 -0.17847,0.97163 -0.22518,1.2927 -0.0463,0.32109 -0.11384,0.86528 -0.14969,1.2093 -0.0359,0.34403 -0.0847,1.1697 -0.10843,1.8348 -0.0242,0.67012 -0.0371,2.7622 -0.0292,4.6912 l 0.0142,3.482 0.0934,0.3336 c 0.0513,0.18348 0.15888,0.47288 0.23935,0.6426 0.0805,0.17014 0.2281,0.42326 0.32777,0.56337 0.0996,0.1397 0.32067,0.38615 0.4908,0.54752 0.17014,0.1618 0.45495,0.3849 0.63301,0.49581 0.17806,0.11093 0.47746,0.2548 0.66554,0.31943 0.18764,0.0646 0.48205,0.13927 0.65427,0.16555 0.17847,0.0275 0.44243,0.0367 0.61507,0.0208 0.16638,-0.015 0.44327,-0.0634 0.61507,-0.10717 0.17223,-0.0442 0.44494,-0.14637 0.60674,-0.22769 0.1618,-0.0813 0.40115,-0.22059 0.53168,-0.30941 0.13093,-0.0892 0.3657,-0.29064 0.5225,-0.44827 0.15679,-0.15763 0.36779,-0.41117 0.46954,-0.56379 0.10175,-0.15262 0.23186,-0.38363 0.28899,-0.51333 0.0575,-0.12969 0.14553,-0.37071 0.19598,-0.53584 l 0.0913,-0.29982 0.0254,-4.5036 c 0.0221,-3.9136 0.035,-4.5774 0.0972,-5.0666 0.0396,-0.30983 0.1201,-0.84442 0.17889,-1.1884 0.0588,-0.34402 0.18973,-0.95865 0.29148,-1.3657 0.10174,-0.407 0.29857,-1.0721 0.43743,-1.4774 0.13844,-0.40532 0.36445,-1.0012 0.50206,-1.324 0.13719,-0.32276 0.40491,-0.88696 0.59423,-1.2539 0.18931,-0.36696 0.50916,-0.9366 0.71098,-1.2656 0.20183,-0.32943 0.53668,-0.83611 0.74435,-1.1259 0.20724,-0.29024 0.54376,-0.73392 0.74809,-0.98618 0.20433,-0.25228 0.58755,-0.69597 0.85193,-0.98617 0.26396,-0.28982 0.69889,-0.73184 0.96622,-0.98205 0.2673,-0.2502 0.68305,-0.62175 0.92363,-0.82523 0.24102,-0.20391 0.68179,-0.5521 0.97995,-0.77393 0.29815,-0.22226 0.78607,-0.56378 1.0842,-0.75974 0.29815,-0.19557 0.7956,-0.50124 1.105,-0.67929 0.30983,-0.17806 0.90075,-0.48747 1.3136,-0.68722 0.41283,-0.19974 1.0321,-0.47664 1.3761,-0.61508 0.34402,-0.13844 0.9633,-0.36445 1.3761,-0.50206 0.41283,-0.13719 1.0909,-0.33485 1.5066,-0.43911 0.41575,-0.10424 1.0538,-0.24602 1.4178,-0.31566 0.36404,-0.0696 0.95287,-0.16388 1.3082,-0.20933 0.3557,-0.0459 0.89032,-0.10634 1.1884,-0.13511 0.31358,-0.03 1.1396,-0.0513 1.9599,-0.0509 1.0383,4.1e-4 1.613,0.0204 2.1476,0.0738 0.40157,0.04 0.97492,0.10884 1.2743,0.15262 0.2994,0.0438 0.7965,0.12844 1.105,0.18807 0.30816,0.0596 0.82313,0.17389 1.1443,0.25395 0.32109,0.0797 0.8373,0.22101 1.1468,0.31358 0.30983,0.0926 0.88192,0.28773 1.2718,0.43285 0.38989,0.14512 0.99037,0.38864 1.3344,0.54085 0.34402,0.15262 0.87615,0.40824 1.1826,0.5692 0.30607,0.16055 0.76605,0.41575 1.0216,0.56712 0.25561,0.15138 0.68971,0.42492 0.96495,0.6084 0.27522,0.18306 0.70764,0.48664 0.9612,0.67429 0.25311,0.18765 0.6943,0.53584 0.97995,0.77355 0.28564,0.23811 0.86692,0.7806 1.2919,1.2056 0.42534,0.42534 0.95205,0.9891 1.1709,1.2526 0.21893,0.26354 0.53918,0.6672 0.71223,0.89655 0.17264,0.22935 0.4929,0.68888 0.71141,1.0216 0.2185,0.33235 0.50415,0.79103 0.63467,1.0187 0.13094,0.22768 0.36613,0.67053 0.52333,0.98415 0.1568,0.31358 0.39157,0.82147 0.52125,1.1288 0.13011,0.30733 0.35529,0.9153 0.50082,1.351 0.14553,0.43577 0.33069,1.055 0.41116,1.3761 0.0805,0.32109 0.19266,0.83693 0.24896,1.1468 0.0567,0.30983 0.13176,0.79733 0.16763,1.0842 0.0355,0.28648 0.0776,0.59631 0.0934,0.68805 0.0154,0.0917 0.0396,11.801 0.0534,26.02 l 0.025,25.854 0.1347,0.39615 c 0.0738,0.21767 0.22059,0.54335 0.32651,0.72308 0.1055,0.18015 0.33569,0.47788 0.51166,0.66219 0.17597,0.18432 0.43409,0.41659 0.57378,0.51625 0.1397,0.0997 0.39282,0.24728 0.56295,0.32776 0.16973,0.0805 0.45746,0.18432 0.63886,0.23019 0.22392,0.0571 0.46495,0.0842 0.75059,0.0838 0.27147,0 0.53918,-0.0288 0.75436,-0.0805 0.18347,-0.0442 0.44493,-0.12968 0.58088,-0.19015 0.13552,-0.0605 0.37029,-0.18974 0.52125,-0.28731 0.15053,-0.098 0.38447,-0.27939 0.51957,-0.40324 0.13512,-0.12343 0.33819,-0.34736 0.4512,-0.49665 0.11343,-0.14971 0.27981,-0.422 0.36988,-0.6059 0.0901,-0.18348 0.20141,-0.48206 0.24728,-0.66345 l 0.083,-0.32984 v -25.642 c -4.2e-4,-17.128 -0.0146,-25.844 -0.043,-26.233 -0.0238,-0.32109 -0.0801,-0.89363 -0.12551,-1.2718 -0.0454,-0.37822 -0.12969,-0.96413 -0.18724,-1.3018 -0.0571,-0.33735 -0.16889,-0.9003 -0.2477,-1.251 -0.0792,-0.35028 -0.211,-0.8811 -0.29315,-1.1793 -0.0817,-0.29816 -0.20683,-0.72975 -0.27688,-0.9591 -0.0705,-0.22935 -0.23853,-0.72058 -0.37406,-1.0917 -0.13552,-0.37071 -0.36904,-0.96203 -0.51958,-1.3136 -0.15012,-0.35112 -0.45661,-1.005 -0.68054,-1.452 -0.22435,-0.44745 -0.57254,-1.0946 -0.77392,-1.4386 -0.20142,-0.34403 -0.56212,-0.92198 -0.80145,-1.2844 -0.23937,-0.36237 -0.6572,-0.9537 -0.92865,-1.3136 -0.27147,-0.36028 -0.66596,-0.86107 -0.87653,-1.1134 -0.211,-0.25229 -0.64384,-0.74226 -0.9624,-1.0888 -0.31859,-0.34653 -0.8469,-0.88155 -1.1747,-1.1893 -0.32776,-0.30775 -0.74601,-0.69139 -0.92948,-0.85275 -0.18348,-0.16138 -0.53042,-0.45328 -0.77145,-0.64844 -0.24061,-0.19516 -0.6255,-0.49581 -0.85485,-0.66803 -0.22935,-0.1718 -0.61382,-0.44994 -0.85485,-0.61799 -0.24061,-0.16806 -0.69097,-0.46579 -1.0008,-0.66178 -0.30941,-0.19599 -0.7881,-0.48664 -1.0634,-0.64593 -0.27522,-0.15929 -0.80062,-0.44536 -1.1676,-0.63635 -0.36696,-0.19056 -0.92032,-0.46245 -1.2302,-0.60339 -0.30983,-0.14095 -0.92865,-0.40324 -1.3761,-0.58214 -0.44702,-0.17931 -1.1538,-0.43951 -1.57,-0.57838 -0.41617,-0.13886 -0.9966,-0.31983 -1.2898,-0.4024 -0.29315,-0.0826 -0.83565,-0.2231 -1.2056,-0.31233 -0.36988,-0.0888 -1.0187,-0.22726 -1.4416,-0.30733 -0.42284,-0.0801 -1.1254,-0.19265 -1.5613,-0.25062 -0.43576,-0.0575 -1.0078,-0.12426 -1.2718,-0.14845 -0.26354,-0.0238 -0.80775,-0.0617 -1.2093,-0.0842 -0.40115,-0.0225 -1.1705,-0.0384 -1.7097,-0.0354 z m 0.417,14.155 c -0.49289,-0.009 -0.98077,-0.01 -1.0842,-10e-4 -0.103,0.009 -0.44077,0.0363 -0.7506,0.0617 -0.30941,0.025 -0.8886,0.1005 -1.2873,0.1668 -0.39824,0.0667 -1.0108,0.19599 -1.3611,0.28731 -0.3507,0.0913 -0.86362,0.24144 -1.1405,0.33402 -0.27688,0.0926 -0.69639,0.24477 -0.93202,0.3386 -0.23603,0.0934 -0.69264,0.2969 -1.015,0.45203 -0.32234,0.15512 -0.79147,0.3999 -1.0425,0.54335 -0.25103,0.14344 -0.69096,0.41742 -0.97785,0.6084 -0.28647,0.19098 -0.72349,0.5054 -0.9708,0.69889 -0.24728,0.19349 -0.6772,0.55587 -0.95535,0.80565 -0.27813,0.24978 -0.70306,0.67012 -0.94447,0.93368 -0.24144,0.26354 -0.5838,0.66094 -0.76057,0.88282 -0.17681,0.22184 -0.44328,0.57838 -0.59173,0.7923 -0.14845,0.21392 -0.40574,0.61424 -0.57171,0.88943 -0.16554,0.27522 -0.4295,0.76312 -0.58546,1.0842 -0.15638,0.32109 -0.35862,0.77145 -0.44953,1.0008 -0.0909,0.22935 -0.24103,0.65135 -0.3336,0.93825 -0.093,0.28647 -0.21601,0.7089 -0.27355,0.93825 -0.0575,0.22935 -0.1422,0.61382 -0.18807,0.85485 -0.0459,0.2406 -0.1176,0.70973 -0.1593,1.0425 l -0.0765,0.6045 v 58.088 l 0.0917,0.34402 c 0.0505,0.18932 0.17054,0.50291 0.26646,0.69681 0.0963,0.19391 0.29315,0.50207 0.43826,0.68513 0.1447,0.18306 0.39949,0.44578 0.56671,0.58339 0.16679,0.13802 0.46328,0.33485 0.65843,0.43784 0.19558,0.103 0.50541,0.23061 0.68889,0.28314 0.26813,0.0772 0.43201,0.0955 0.834,0.0938 0.33902,-10e-4 0.58797,-0.0254 0.77145,-0.0746 0.14929,-0.0401 0.43993,-0.15512 0.64635,-0.2552 0.20641,-0.1005 0.50665,-0.28732 0.6672,-0.41491 0.16054,-0.12803 0.40824,-0.3678 0.55002,-0.53293 0.1422,-0.16513 0.33694,-0.43785 0.43285,-0.60548 0.0959,-0.16764 0.22893,-0.46246 0.29523,-0.65428 0.0734,-0.21434 0.13553,-0.50874 0.16013,-0.7602 0.025,-0.25687 0.0404,-11.102 0.0409,-28.97 10e-4,-25.64 0.008,-28.604 0.0663,-29.002 0.0359,-0.24394 0.093,-0.55586 0.12719,-0.69347 0.0338,-0.13761 0.11968,-0.42868 0.19015,-0.64635 0.0705,-0.2181 0.23603,-0.62384 0.3678,-0.90195 0.13218,-0.27814 0.36279,-0.69097 0.51249,-0.9174 0.1497,-0.22644 0.422,-0.59089 0.60548,-0.80985 0.18348,-0.21893 0.45244,-0.50832 0.59839,-0.64343 0.14554,-0.13511 0.40407,-0.35612 0.57463,-0.49165 0.17055,-0.13552 0.44702,-0.33902 0.61466,-0.45244 0.16763,-0.11301 0.49748,-0.30733 0.73266,-0.4316 0.23519,-0.12467 0.61008,-0.3019 0.83235,-0.39448 0.22268,-0.0926 0.623,-0.23435 0.89033,-0.31525 0.2673,-0.0813 0.73309,-0.19308 1.0354,-0.24895 0.30232,-0.0559 0.83984,-0.12302 1.1947,-0.14929 0.35487,-0.0263 0.86107,-0.0359 1.1246,-0.0213 0.26397,0.0146 0.69556,0.055 0.95911,0.0892 0.26396,0.0342 0.67679,0.10842 0.91739,0.16555 0.24103,0.0567 0.61633,0.16055 0.83401,0.2306 0.21809,0.0705 0.59339,0.21476 0.83399,0.32109 0.24103,0.10634 0.58798,0.27606 0.771,0.37739 0.18348,0.10133 0.48665,0.28606 0.67388,0.41074 0.18723,0.12427 0.51583,0.3728 0.72975,0.5517 0.21433,0.17889 0.51333,0.45619 0.66386,0.6159 0.15054,0.15972 0.37947,0.42284 0.50833,0.58422 0.12885,0.16138 0.34194,0.45996 0.47371,0.66387 0.13135,0.20349 0.34653,0.59547 0.47788,0.87067 0.13094,0.27522 0.30441,0.70682 0.38531,0.9591 0.0809,0.25229 0.17722,0.61799 0.21475,0.81315 0.0371,0.19516 0.0801,0.39198 0.0955,0.43785 0.0154,0.0459 0.038,3.8456 0.0505,8.4442 l 0.0225,8.361 0.11676,0.3753 c 0.0647,0.20642 0.19097,0.51291 0.28147,0.68054 0.0901,0.16806 0.24853,0.41534 0.35152,0.54919 0.10301,0.13386 0.31067,0.35487 0.46163,0.49082 0.15095,0.13635 0.41866,0.33234 0.59464,0.43534 0.17639,0.103 0.42367,0.22727 0.5496,0.27647 0.12636,0.0488 0.35154,0.11718 0.5004,0.15179 0.14887,0.0342 0.45495,0.063 0.67971,0.0634 0.2256,0 0.54377,-0.0296 0.70891,-0.0668 0.16513,-0.0367 0.45661,-0.13927 0.64801,-0.22809 0.19141,-0.0888 0.46371,-0.24436 0.60465,-0.34486 0.14137,-0.10091 0.40074,-0.33402 0.57671,-0.51833 0.17597,-0.18432 0.40574,-0.48122 0.51042,-0.66012 0.10466,-0.17889 0.23685,-0.46704 0.29356,-0.64009 0.0567,-0.17306 0.12343,-0.4366 0.14845,-0.58547 0.0317,-0.19015 0.0409,-2.7356 0.0313,-8.5275 l -0.0134,-8.2568 -0.0738,-0.56295 c -0.0404,-0.30983 -0.12968,-0.84442 -0.19808,-1.1884 -0.0688,-0.34402 -0.19807,-0.88155 -0.28773,-1.1943 -0.0897,-0.31275 -0.23184,-0.75352 -0.31608,-0.97995 -0.0842,-0.22601 -0.26521,-0.66428 -0.40199,-0.9741 -0.13678,-0.30983 -0.38656,-0.81067 -0.55586,-1.1134 -0.16889,-0.30316 -0.44243,-0.75353 -0.6084,-1.0008 -0.16555,-0.2477 -0.41366,-0.60048 -0.55127,-0.78398 -0.13761,-0.18348 -0.35445,-0.45578 -0.48164,-0.60465 -0.1276,-0.14886 -0.39907,-0.45411 -0.6034,-0.67762 -0.20433,-0.22352 -0.59381,-0.60632 -0.86528,-0.85028 -0.27146,-0.24394 -0.69555,-0.6009 -0.94282,-0.79357 -0.24729,-0.19224 -0.68513,-0.50708 -0.97328,-0.69931 -0.28773,-0.19224 -0.76642,-0.4858 -1.0634,-0.65218 -0.29648,-0.1668 -0.71682,-0.38615 -0.93367,-0.48747 -0.21684,-0.10175 -0.60174,-0.27022 -0.85485,-0.37488 -0.25354,-0.10425 -0.73267,-0.28106 -1.0654,-0.39282 -0.33235,-0.11217 -0.90488,-0.2773 -1.2718,-0.36738 -0.36696,-0.0901 -0.89903,-0.20307 -1.1822,-0.25062 -0.28314,-0.048 -0.771,-0.11425 -1.0842,-0.14761 -0.31317,-0.0338 -0.97245,-0.0684 -1.4657,-0.0776 z m -0.31275,12.614 c -0.13761,0.002 -0.38156,0.0279 -0.5421,0.0575 -0.16054,0.03 -0.41783,0.10092 -0.57171,0.15721 -0.15346,0.0567 -0.41617,0.18348 -0.5838,0.28147 -0.19724,0.11635 -0.44994,0.32652 -0.72099,0.60048 -0.25312,0.25604 -0.48414,0.53627 -0.58755,0.7135 -0.0934,0.16012 -0.22018,0.41616 -0.28105,0.56878 -0.0609,0.15304 -0.13928,0.412 -0.17348,0.57629 -0.0555,0.26313 -0.063,2.3285 -0.063,17.411 0,15.06 0.008,17.148 0.0625,17.41 0.0346,0.16346 0.12176,0.43994 0.19432,0.6134 0.0722,0.17389 0.22059,0.44953 0.32986,0.61258 0.10925,0.16347 0.31525,0.41492 0.45827,0.55919 0.14262,0.14387 0.37572,0.34486 0.51792,0.44619 0.1422,0.10176 0.3974,0.25063 0.56754,0.33111 0.16971,0.0805 0.45744,0.18431 0.63884,0.23018 0.22935,0.0588 0.46537,0.0842 0.7752,0.0842 0.30524,0 0.54919,-0.0259 0.7752,-0.0826 0.18139,-0.0454 0.5029,-0.16929 0.71391,-0.27522 0.21142,-0.10591 0.51124,-0.29898 0.66636,-0.42909 0.15513,-0.13052 0.39157,-0.36779 0.52626,-0.52792 0.13969,-0.16597 0.33193,-0.46913 0.44952,-0.70765 0.11259,-0.22935 0.23769,-0.53918 0.27773,-0.68805 l 0.073,-0.27105 v -34.658 l -0.0743,-0.27105 c -0.0404,-0.14929 -0.13761,-0.40615 -0.21559,-0.57087 -0.078,-0.16513 -0.22184,-0.41783 -0.31942,-0.5617 -0.098,-0.14428 -0.30149,-0.38572 -0.45286,-0.53667 -0.15095,-0.15138 -0.39365,-0.35571 -0.53918,-0.45495 -0.14595,-0.0988 -0.407,-0.2452 -0.58005,-0.32526 -0.17347,-0.0801 -0.48539,-0.18057 -0.69347,-0.22352 -0.20766,-0.0429 -0.49039,-0.0767 -0.628,-0.0751 z m 37.885,13.068 c -0.25229,-0.0121 -0.51458,0.004 -0.72266,0.0434 -0.17972,0.0337 -0.46662,0.12009 -0.63759,0.19098 -0.17097,0.0713 -0.45579,0.22393 -0.63218,0.33944 -0.17639,0.11509 -0.44535,0.3336 -0.59714,0.4858 -0.15221,0.15179 -0.37071,0.42075 -0.4858,0.59715 -0.11551,0.17639 -0.26647,0.45786 -0.33611,0.62508 -0.0697,0.16722 -0.15637,0.45411 -0.19348,0.63759 l -0.0668,0.3336 0.0113,11.176 0.0117,11.176 0.0947,0.30524 c 0.0521,0.16806 0.16263,0.43994 0.2452,0.60465 0.083,0.16472 0.20808,0.38407 0.27814,0.48706 0.0701,0.103 0.25062,0.3165 0.40115,0.47372 0.15054,0.15762 0.38906,0.36904 0.53043,0.46995 0.14094,0.10134 0.41324,0.25646 0.60465,0.34528 0.1914,0.0888 0.47913,0.19432 0.63968,0.23477 0.18598,0.0463 0.45078,0.073 0.72974,0.073 0.27898,0 0.54377,-0.0267 0.72976,-0.073 0.16054,-0.0404 0.44827,-0.14595 0.63967,-0.23477 0.19141,-0.0888 0.46371,-0.24394 0.60465,-0.34528 0.14137,-0.10091 0.37989,-0.31233 0.53043,-0.46995 0.15053,-0.15722 0.33109,-0.37072 0.40115,-0.47372 0.0701,-0.10299 0.19557,-0.32275 0.27856,-0.48831 0.083,-0.16513 0.19349,-0.4466 0.24519,-0.6255 l 0.0942,-0.32484 v -22.602 l -0.1347,-0.39615 c -0.0738,-0.21809 -0.22059,-0.54335 -0.32651,-0.72307 -0.10549,-0.18015 -0.33568,-0.47789 -0.51166,-0.6622 -0.17597,-0.18431 -0.43242,-0.41492 -0.57003,-0.5125 -0.13761,-0.0976 -0.3849,-0.24478 -0.54961,-0.32734 -0.16472,-0.0826 -0.4366,-0.18849 -0.60465,-0.23561 -0.16805,-0.0471 -0.4833,-0.0942 -0.70139,-0.10425 z m -63.08,2.359 c -0.25688,0.002 -0.51708,0.0305 -0.70056,0.0788 -0.16054,0.0425 -0.37655,0.11008 -0.47955,0.15012 -0.103,0.0401 -0.33152,0.15721 -0.50791,0.26062 -0.17597,0.103 -0.44494,0.30025 -0.59756,0.43786 -0.15263,0.13802 -0.37113,0.37446 -0.48581,0.52542 -0.11425,0.15137 -0.28189,0.42491 -0.37196,0.60881 -0.0905,0.18349 -0.20641,0.4929 -0.25771,0.68806 l -0.0934,0.35444 v 31.858 l 0.0776,0.2919 c 0.0425,0.16055 0.15011,0.4487 0.23935,0.64052 0.0888,0.19182 0.25437,0.47371 0.36779,0.62716 0.11384,0.15304 0.31734,0.38407 0.45245,0.51291 0.1351,0.12885 0.39031,0.32901 0.56712,0.44411 0.1768,0.11551 0.46621,0.26563 0.64301,0.3336 0.1768,0.0679 0.43951,0.14678 0.58338,0.17472 0.16221,0.0317 0.44828,0.0433 0.7506,0.0308 0.40032,-0.0166 0.55461,-0.0433 0.85237,-0.14637 0.20016,-0.0692 0.50708,-0.20766 0.68222,-0.30774 0.17556,-0.1005 0.4758,-0.32943 0.66803,-0.50916 0.20433,-0.1914 0.45078,-0.47871 0.59381,-0.69222 0.13886,-0.20766 0.2994,-0.5175 0.37238,-0.71932 0.0705,-0.19474 0.14929,-0.50291 0.17472,-0.6843 0.0342,-0.24061 0.0438,-4.6137 0.0346,-16.135 l -0.0121,-15.804 -0.0746,-0.2477 c -0.0409,-0.13594 -0.11842,-0.35737 -0.17263,-0.49122 -0.0542,-0.13386 -0.16138,-0.3482 -0.23853,-0.47622 -0.0767,-0.12802 -0.25353,-0.36696 -0.39281,-0.53084 -0.13969,-0.16388 -0.39281,-0.40491 -0.56295,-0.53543 -0.17055,-0.1301 -0.48831,-0.32067 -0.70598,-0.42283 -0.21767,-0.10217 -0.53126,-0.21559 -0.69639,-0.25229 -0.16931,-0.0375 -0.4783,-0.0659 -0.7089,-0.0642 z m 37.81,10.651 c -0.32401,-0.0129 -0.56044,0 -0.72975,0.0388 -0.13761,0.0321 -0.37864,0.10968 -0.53543,0.17264 -0.15679,0.063 -0.42909,0.20767 -0.60465,0.32193 -0.17556,0.11384 -0.46954,0.36154 -0.65302,0.5496 -0.18348,0.18849 -0.41325,0.47705 -0.51041,0.64177 -0.0972,0.16429 -0.22268,0.41157 -0.27897,0.54961 -0.0559,0.13802 -0.13136,0.38655 -0.16805,0.55252 l -0.0663,0.3019 0.0113,15.387 0.0117,15.387 0.13136,0.3678 c 0.0725,0.20224 0.22267,0.51999 0.3336,0.70556 0.11425,0.19057 0.34777,0.48665 0.53584,0.67888 0.18349,0.18765 0.45328,0.42117 0.59965,0.51916 0.14637,0.098 0.39949,0.2402 0.56295,0.31567 0.16346,0.0751 0.4145,0.16722 0.55836,0.20433 0.14387,0.0375 0.40658,0.0788 0.5838,0.0926 0.17723,0.0134 0.46246,0.002 0.63426,-0.0242 0.17139,-0.0267 0.43994,-0.0934 0.59631,-0.14762 0.15679,-0.0546 0.42784,-0.18055 0.60257,-0.2798 0.17472,-0.0992 0.47538,-0.32943 0.66845,-0.51166 0.19265,-0.18181 0.43159,-0.44452 0.53083,-0.5838 0.0992,-0.13886 0.24645,-0.38489 0.32777,-0.54669 0.0809,-0.1618 0.19057,-0.4341 0.24353,-0.60465 l 0.0963,-0.31066 0.0109,-15.22 c 0.009,-12.842 10e-4,-15.273 -0.0471,-15.554 -0.0321,-0.18348 -0.11635,-0.48414 -0.18765,-0.66804 -0.0709,-0.18431 -0.22268,-0.47746 -0.33736,-0.65135 -0.11425,-0.17431 -0.3411,-0.44995 -0.50415,-0.61299 -0.16305,-0.16305 -0.42159,-0.37989 -0.57462,-0.48122 -0.15304,-0.10175 -0.39073,-0.23477 -0.52834,-0.29565 -0.13761,-0.0609 -0.38156,-0.14762 -0.5421,-0.19307 -0.18015,-0.0505 -0.47538,-0.0892 -0.77145,-0.10134 z m -12.614,19.556 c -0.41408,-0.0158 -0.55419,-0.005 -0.81233,0.0655 -0.17139,0.0463 -0.42909,0.13927 -0.57254,0.20641 -0.14344,0.0671 -0.35028,0.18306 -0.45953,0.25771 -0.10925,0.0742 -0.28898,0.21058 -0.39907,0.30232 -0.11008,0.0922 -0.30024,0.29023 -0.42283,0.44077 -0.1226,0.15012 -0.28356,0.37613 -0.35779,0.50249 -0.0742,0.12593 -0.18848,0.36362 -0.25437,0.5275 -0.0655,0.16388 -0.14762,0.43243 -0.18223,0.59673 -0.0546,0.25937 -0.063,1.178 -0.0626,6.9164 v 6.617 l 0.0826,0.34319 c 0.045,0.18849 0.13803,0.46662 0.20683,0.61758 0.0684,0.15137 0.20892,0.40199 0.31233,0.55711 0.103,0.15554 0.33819,0.42659 0.52251,0.60256 0.18473,0.1764 0.4416,0.38824 0.57171,0.47164 0.12969,0.083 0.35528,0.20516 0.50123,0.27105 0.14553,0.0663 0.41908,0.1572 0.60757,0.20224 0.21726,0.0521 0.48872,0.0826 0.73934,0.0826 0.24853,0 0.52208,-0.0305 0.73434,-0.0813 0.1864,-0.0446 0.44202,-0.12677 0.56836,-0.18264 0.12636,-0.0559 0.34028,-0.17181 0.47497,-0.2573 0.13469,-0.0859 0.34611,-0.24186 0.46996,-0.34694 0.12427,-0.10508 0.33109,-0.32401 0.45995,-0.48622 0.12885,-0.16222 0.31233,-0.44494 0.40783,-0.62842 0.0955,-0.18348 0.21684,-0.47371 0.2698,-0.6451 l 0.0963,-0.3115 0.0117,-6.6928 c 0.0109,-6.0118 0.005,-6.7266 -0.055,-7.0264 -0.0367,-0.18348 -0.12344,-0.46913 -0.19224,-0.63467 -0.0688,-0.16555 -0.20099,-0.41909 -0.29357,-0.56295 -0.0926,-0.14387 -0.25437,-0.36321 -0.35987,-0.48706 -0.10508,-0.12427 -0.32984,-0.33568 -0.49957,-0.47038 -0.16929,-0.13469 -0.47954,-0.32692 -0.68971,-0.42742 -0.20975,-0.10049 -0.50332,-0.21392 -0.65261,-0.25187 -0.14886,-0.0375 -0.49623,-0.0771 -0.77145,-0.0876 z"
         id="icon" /></g></g></svg>