<svg width="96" height="97" viewBox="0 0 96 97" fill="none" xmlns="http://www.w3.org/2000/svg">
<rect y="0.711426" width="96" height="96" rx="20" fill="#E9EEFF"/>
<path opacity="0.35" d="M59.8574 58.9689C65.0414 55.2326 68.428 49.1614 68.428 42.2829C68.428 30.9223 59.2172 21.7114 47.8566 21.7114C36.496 21.7114 27.2852 30.9223 27.2852 42.2829C27.2852 49.1614 30.6717 55.2326 35.8557 58.9689L37.5092 65.4257H58.204L59.8574 58.9689Z" fill="#2253FF"/>
<path d="M57.0571 69.9104L58.2066 65.4258H37.5117L38.6586 69.9104C39.5329 73.3226 42.6083 75.7115 46.1311 75.7115H49.5846C53.11 75.7115 56.1854 73.3226 57.0571 69.9104Z" fill="#2253FF"/>
<path d="M70.9972 26.8543C72.4174 26.8543 73.5686 25.703 73.5686 24.2829C73.5686 22.8627 72.4174 21.7114 70.9972 21.7114C69.577 21.7114 68.4258 22.8627 68.4258 24.2829C68.4258 25.703 69.577 26.8543 70.9972 26.8543Z" fill="#2253FF"/>
<path d="M24.716 26.8543C26.1361 26.8543 27.2874 25.703 27.2874 24.2829C27.2874 22.8627 26.1361 21.7114 24.716 21.7114C23.2958 21.7114 22.1445 22.8627 22.1445 24.2829C22.1445 25.703 23.2958 26.8543 24.716 26.8543Z" fill="#2253FF"/>
<path d="M70.9972 62.8543C72.4174 62.8543 73.5686 61.703 73.5686 60.2829C73.5686 58.8627 72.4174 57.7114 70.9972 57.7114C69.577 57.7114 68.4258 58.8627 68.4258 60.2829C68.4258 61.703 69.577 62.8543 70.9972 62.8543Z" fill="#2253FF"/>
<path d="M24.716 62.8543C26.1361 62.8543 27.2874 61.703 27.2874 60.2829C27.2874 58.8627 26.1361 57.7114 24.716 57.7114C23.2958 57.7114 22.1445 58.8627 22.1445 60.2829C22.1445 61.703 23.2958 62.8543 24.716 62.8543Z" fill="#2253FF"/>
<path d="M76.1456 44.8543C77.5658 44.8543 78.7171 43.703 78.7171 42.2829C78.7171 40.8627 77.5658 39.7114 76.1456 39.7114C74.7255 39.7114 73.5742 40.8627 73.5742 42.2829C73.5742 43.703 74.7255 44.8543 76.1456 44.8543Z" fill="#2253FF"/>
<path d="M19.5714 44.8543C20.9916 44.8543 22.1429 43.703 22.1429 42.2829C22.1429 40.8627 20.9916 39.7114 19.5714 39.7114C18.1513 39.7114 17 40.8627 17 42.2829C17 43.703 18.1513 44.8543 19.5714 44.8543Z" fill="#2253FF"/>
</svg>
